<svg id="Groupe_109" data-name="Groupe 109" xmlns="http://www.w3.org/2000/svg" xmlns:xlink="http://www.w3.org/1999/xlink" width="392" height="287.804" viewBox="0 0 392 287.804">
  <defs>
    <linearGradient id="linear-gradient" x1="0.5" y1="1" x2="0.5" gradientUnits="objectBoundingBox">
      <stop offset="0" stop-color="gray" stop-opacity="0.251"/>
      <stop offset="0.54" stop-color="gray" stop-opacity="0.122"/>
      <stop offset="1" stop-color="gray" stop-opacity="0.102"/>
    </linearGradient>
  </defs>
  <path id="Tracé_217" data-name="Tracé 217" d="M139.837,274.581c8.249,18.631-2.276,40.093-14.645,56.27-4.148,5.415-8.708,11.083-9.29,17.9-.693,8.312,4.936,15.956,11.617,20.951a48.918,48.918,0,0,0,43.315,7.327c12.528-3.958,23.061-12.932,35.7-16.549,21.145-6.052,43.54,3.982,61.634,16.478,12.8,8.843,26.52,19.593,41.957,17.705,10.869-1.33,20.092-8.957,26.346-17.943,3.02-4.354,5.648-9.195,10.05-12.124a25.1,25.1,0,0,1,8.764-3.321c28.064-6,57.842,8.641,85.533,1.112,18.7-5.086,33.617-19.87,42.887-36.887s13.6-36.238,17.206-55.281c2.561-13.533,4.687-28.135-1.187-40.588-6.23-13.173-20.65-21.157-35.141-22.649s-29.03,2.644-42.381,8.479c-16.684,7.295-33.035,17.507-51.247,17.543-12.4.024-24.224-4.75-36.083-8.364-19.862-6.068-40.445-9.084-61-11.867-19.668-2.664-39.527-5.146-59.314-3.562-14,1.112-26.362,6.464-39.946,8.938-8.855,1.615-17.753.4-26.441,3.131-10.687,3.345-21.707,11.107-22.3,23.318C125.31,256.207,135.459,264.689,139.837,274.581Z" transform="translate(-111.486 -159.078)" fill="#6c63ff" opacity="0.1"/>
  <g id="Groupe_107" data-name="Groupe 107" transform="translate(255.227 68.178)" opacity="0.5">
    <path id="Tracé_218" data-name="Tracé 218" d="M770.652,263.012c-1.979.57-4.437,2.042-5.64,6.084-2.375,7.916,3.119,13.331,1.318,21.553a16.074,16.074,0,0,1-2.771,6.044c-2.2,2.988-4.6,4.406-6.923,6.5a20.654,20.654,0,0,0-6.084,9.991,27.652,27.652,0,0,0-.273,12.987c.827,3.586,2.236,6.195,3.464,9.1a67.239,67.239,0,0,1,3.562,11.479,27.908,27.908,0,0,1,.792,5.823,51.376,51.376,0,0,1-.72,7.79l-3.353,23.4a69.477,69.477,0,0,0-.914,9.246,45.772,45.772,0,0,0,1.073,9.235c1.188,6.191,2.442,12.615,5.146,15.88s7.287,2.134,10.109-4.532c2.684-6.333,2.739-14.8,5.106-21.58,3.729-10.687,11.146-12.112,15.259-22.3,3.958-9.769,2.739-21.77,4.75-32.9,1.433-7.984,4.485-15.267,6.294-23.156a73.4,73.4,0,0,0,.265-31.891,42.357,42.357,0,0,0-9.923-19.277c-1.746-1.928-3.61-3.642-5.8-3.812-2.331-.178-4.354,2.771-6.67,3.638C776.031,263.317,773.355,262.245,770.652,263.012Z" transform="translate(-749.636 -258.67)" fill="#6c63ff"/>
    <path id="Tracé_219" data-name="Tracé 219" d="M803.245,260.09s-3.958,101.046-20.555,160.633" transform="translate(-769.606 -259.528)" fill="none" stroke="#535461" stroke-miterlimit="10" stroke-width="2"/>
    <path id="Tracé_220" data-name="Tracé 220" d="M788.22,286.26s17.725,16.154,14.38,46.933" transform="translate(-772.947 -275.339)" fill="none" stroke="#535461" stroke-miterlimit="10" stroke-width="2"/>
    <path id="Tracé_221" data-name="Tracé 221" d="M750.6,402.38s29.133,5.858,26.971,23.282" transform="translate(-750.218 -345.497)" fill="none" stroke="#535461" stroke-miterlimit="10" stroke-width="2"/>
    <path id="Tracé_222" data-name="Tracé 222" d="M845.749,316.41s-11.784,10.319-22.289,39.547" transform="translate(-794.239 -293.555)" fill="none" stroke="#535461" stroke-miterlimit="10" stroke-width="2"/>
    <path id="Tracé_223" data-name="Tracé 223" d="M828.529,515.528s-8.043,6.333-14.5-15.758" transform="translate(-788.541 -404.337)" fill="none" stroke="#535461" stroke-miterlimit="10" stroke-width="2"/>
    <path id="Tracé_224" data-name="Tracé 224" d="M763,553.177s16.4-2.141,17.915-12.417" transform="translate(-757.71 -429.103)" fill="none" stroke="#535461" stroke-miterlimit="10" stroke-width="2"/>
  </g>
  <path id="Tracé_225" data-name="Tracé 225" d="M846.7,91.174c-4.061.6-8.946,2.482-10.952,8.289-3.938,11.384,8.039,20,5.28,31.9a17.88,17.88,0,0,1-5.015,8.574c-4.212,4.14-9.005,5.937-13.557,8.748a25.545,25.545,0,0,0-11.412,13.992,29.5,29.5,0,0,0,.97,19.094c2.134,5.379,5.363,9.389,8.249,13.814a93.587,93.587,0,0,1,8.768,17.3,33.271,33.271,0,0,1,2.316,8.665,52.419,52.419,0,0,1-.566,11.384l-4.164,34.041a70.838,70.838,0,0,0-.792,13.509c.36,5.039,1.848,9.432,3.317,13.723,3.167,9.254,6.555,18.869,12.52,23.995S857,322.2,862.046,312.72c4.8-9.029,3.919-21.477,8.011-31.175,6.452-15.283,21.632-16.518,28.935-31.025,7.01-13.917,3.087-31.721,5.9-47.895,2.019-11.59,7.477-21.948,10.291-33.352a78.611,78.611,0,0,0-3.234-46.933c-5.344-13.106-13.767-22.38-22.823-29.564-3.839-3.044-7.917-5.795-12.461-6.3-4.845-.538-8.708,3.539-13.375,4.564C857.87,92.255,852.21,90.359,846.7,91.174Z" transform="translate(-530.811 -86.427)" fill="#6c63ff"/>
  <path id="Tracé_226" data-name="Tracé 226" d="M931.9,88.12s3.82,148.339-23.5,234.117" transform="translate(-590.33 -87.45)" fill="none" stroke="#535461" stroke-miterlimit="10" stroke-width="2"/>
  <path id="Tracé_227" data-name="Tracé 227" d="M874.83,121.16s38.64,25.895,35.331,70.821" transform="translate(-570.048 -107.412)" fill="none" stroke="#535461" stroke-miterlimit="10" stroke-width="2"/>
  <path id="Tracé_228" data-name="Tracé 228" d="M810.75,287.71s60.988,12.081,58.582,37.48" transform="translate(-531.332 -208.038)" fill="none" stroke="#535461" stroke-miterlimit="10" stroke-width="2"/>
  <path id="Tracé_229" data-name="Tracé 229" d="M1004.629,176.42s-23.179,13.8-41.439,55.593" transform="translate(-623.433 -140.799)" fill="none" stroke="#535461" stroke-miterlimit="10" stroke-width="2"/>
  <path id="Tracé_230" data-name="Tracé 230" d="M985.446,463.547s-15.9,8.368-31.876-24.937" transform="translate(-617.621 -299.208)" fill="none" stroke="#535461" stroke-miterlimit="10" stroke-width="2"/>
  <path id="Tracé_231" data-name="Tracé 231" d="M856.47,514.5s33.7-1.211,35.624-16.157" transform="translate(-558.955 -335.295)" fill="none" stroke="#535461" stroke-miterlimit="10" stroke-width="2"/>
  <ellipse id="Ellipse_39" data-name="Ellipse 39" cx="169.281" cy="16.26" rx="169.281" ry="16.26" transform="translate(23.966 215.202)" fill="#6c63ff" opacity="0.1"/>
  <path id="Tracé_232" data-name="Tracé 232" d="M158.176,622.29s3.317,4.354-1.532,10.885-8.847,12.081-7.212,16.161c0,0,7.315-12.164,13.268-12.334S164.727,629.6,158.176,622.29Z" transform="translate(-131.554 -410.183)" fill="#6c63ff"/>
  <path id="Tracé_233" data-name="Tracé 233" d="M158.448,622.29a5.372,5.372,0,0,1,.677,1.362c5.811,6.824,8.9,13.193,3.321,13.355-5.2.15-11.439,9.448-12.935,11.8a5.034,5.034,0,0,0,.178.534s7.315-12.164,13.268-12.334S165,629.6,158.448,622.29Z" transform="translate(-131.826 -410.183)" opacity="0.1"/>
  <path id="Tracé_234" data-name="Tracé 234" d="M186.462,634.779c0,1.528-.17,2.771-.4,2.771s-.4-1.239-.4-2.771.214-.792.424-.792S186.462,633.251,186.462,634.779Z" transform="translate(-153.673 -417.142)" fill="#ffd037"/>
  <path id="Tracé_235" data-name="Tracé 235" d="M189.008,639.265c-1.342.732-2.509,1.188-2.608.986s.9-.93,2.244-1.659.811-.2.914,0S190.354,638.528,189.008,639.265Z" transform="translate(-154.11 -419.807)" fill="#ffd037"/>
  <path id="Tracé_236" data-name="Tracé 236" d="M116.48,622.29s-3.317,4.354,1.532,10.885,8.831,12.081,7.248,16.161c0,0-7.315-12.164-13.268-12.334S109.933,629.6,116.48,622.29Z" transform="translate(-107.382 -410.183)" fill="#6c63ff"/>
  <path id="Tracé_237" data-name="Tracé 237" d="M116.458,622.29a5.372,5.372,0,0,0-.677,1.362c-5.811,6.824-8.9,13.193-3.321,13.355,5.2.15,11.439,9.448,12.935,11.8a5.033,5.033,0,0,1-.178.534s-7.315-12.164-13.268-12.334S109.911,629.6,116.458,622.29Z" transform="translate(-107.36 -410.183)" opacity="0.1"/>
  <path id="Tracé_238" data-name="Tracé 238" d="M112.25,634.779c0,1.528.17,2.771.4,2.771s.4-1.239.4-2.771-.214-.792-.424-.792S112.25,633.251,112.25,634.779Z" transform="translate(-109.314 -417.142)" fill="#ffd037"/>
  <path id="Tracé_239" data-name="Tracé 239" d="M105.651,639.265c1.342.732,2.51,1.188,2.608.986s-.9-.93-2.244-1.659-.811-.2-.914,0S104.309,638.528,105.651,639.265Z" transform="translate(-104.833 -419.807)" fill="#ffd037"/>
  <path id="Tracé_240" data-name="Tracé 240" d="M114.91,681.544s9.274-.285,12.069-2.276,14.25-4.354,14.958-1.187,13.937,15.876,3.467,15.96-24.327-1.631-27.118-3.329S114.91,681.544,114.91,681.544Z" transform="translate(-110.921 -442.957)" fill="#a8a8a8"/>
  <path id="Tracé_241" data-name="Tracé 241" d="M145.6,700.588c-10.47.083-24.327-1.631-27.118-3.329-2.126-1.294-2.973-5.937-3.254-8.079h-.309s.586,7.481,3.376,9.179,16.648,3.416,27.134,3.333c3.024-.024,4.065-1.1,4.01-2.692C148.992,699.962,147.848,700.564,145.6,700.588Z" transform="translate(-110.927 -450.597)" opacity="0.2"/>
  <path id="Tracé_242" data-name="Tracé 242" d="M419.87,489.473s46.41-29.651,78.5-29.651c0,0,38.628-6.017,80.645,4.152s57.537,23.354,69.186,19.482l-48.94,1.433Z" transform="translate(-295.171 -310.956)" fill="#8cd0f3"/>
  <path id="Tracé_243" data-name="Tracé 243" d="M419.87,489.473s46.41-29.651,78.5-29.651c0,0,38.628-6.017,80.645,4.152s57.537,23.354,69.186,19.482l-48.94,1.433Z" transform="translate(-295.171 -310.956)" fill="#8cd0f3" opacity="0.1"/>
  <path id="Tracé_244" data-name="Tracé 244" d="M435.645,498.476H152.6l7.782-31.179,48.132-12.8,227.131,5.969Z" transform="translate(-92.195 -274.578)" fill="#121c3f"/>
  <path id="Tracé_245" data-name="Tracé 245" d="M526.818,518.026v9.951s-8.4,6.1-9.167,10.869c0,0-12.033,3.056-15.469,3.056a9.955,9.955,0,0,0-1.009.036,28.569,28.569,0,0,0,1.255-4.429,29.17,29.17,0,1,0-55.364,5.937H430.748s-.15.052-.4.158c-.875.4-2.937,1.441-3.234,3.083H291.9l-2.771-.024a28.6,28.6,0,0,0,1.583-3.064,28.267,28.267,0,0,0,1.924-6.084,29.2,29.2,0,1,0-53.8,9.052c-1.932-.471-6.147-1.809-6.147-1.809s-17.951-1.908-22.534-5.937l.693-.479,2.937-2.007-1.338-5.146a3.166,3.166,0,0,1-.4-.7,4.709,4.709,0,0,1,.59-4.457c1.908-3.056.954-13.941.954-13.941s25.974-17.951,77.158-21.964a7.389,7.389,0,0,0,3.748,1.148,16.374,16.374,0,0,0,6.951-1.148s4.2,1.908,22.166-8.4c0,0,30.562-21.01,70.67-19.094,0,0,41.253-2.486,76.394,11.083a216.3,216.3,0,0,0,34.88,10.6,80.921,80.921,0,0,0,14.527,1.829h1.4s0,4.548.241,9.919v.028c.087,1.868.206,3.835.372,5.747v.119c.459,5.324,1.251,10.161,2.624,11.119Z" transform="translate(-168.469 -313.611)" fill="#2856b8"/>
  <path id="Tracé_246" data-name="Tracé 246" d="M228.661,575.568s11.507-8.977,25.831-7.065c0,0-13.034,10.315-18.908,9.646l-1-.859-5.937.332S227.759,576.237,228.661,575.568Z" transform="translate(-179.403 -377.525)" fill="#8cd0f3"/>
  <path id="Tracé_247" data-name="Tracé 247" d="M229.98,626v5.3s-.4,5.063-4.968,5.253l-13.062.645,2.933-2.007-1.338-5.146a3.06,3.06,0,0,1-.4-.7c1.187-1.093,3.986-2.937,9.678-3.333Z" transform="translate(-169.551 -412.425)" fill="#fff" opacity="0.2"/>
  <path id="Tracé_248" data-name="Tracé 248" d="M411.06,569.276l10.026-.4s-4.057,3.2-6.923,3.487S411.06,569.276,411.06,569.276Z" transform="translate(-289.849 -377.914)" fill="#fff" opacity="0.2"/>
  <path id="Tracé_249" data-name="Tracé 249" d="M464.38,632.4s90.671-12.607,112.588-8.6c0,0,6.444.432,8.882,3.008s0,.906,0,.906Z" transform="translate(-322.063 -410.619)" fill="#fff" opacity="0.2"/>
  <path id="Tracé_250" data-name="Tracé 250" d="M592.61,553.028s1.148-2.149,3.008-2.2l12.081-.621a2.977,2.977,0,0,1-2.339,2.292Z" transform="translate(-399.537 -366.634)" fill="#18218a" opacity="0.5"/>
  <path id="Tracé_251" data-name="Tracé 251" d="M769.21,543.834s1.148-2.149,3.008-2.2L784.3,541a2.977,2.977,0,0,1-2.339,2.292Z" transform="translate(-506.235 -361.07)" fill="#18218a" opacity="0.5"/>
  <path id="Tracé_252" data-name="Tracé 252" d="M554.206,473.051l-9.27,24.311-33.423.036H481.62s4.465-3.277,11.657-7.453c2.375-1.385,5.07-2.866,8-4.354,2.692-1.377,5.589-2.771,8.633-4.093,2.375-1.045,4.877-2.05,7.434-2.988C528.933,474.27,541.963,471.424,554.206,473.051Z" transform="translate(-332.479 -319.736)" fill="#8cd0f3"/>
  <path id="Tracé_253" data-name="Tracé 253" d="M720.527,490.624s-13.965,2.07-27.292,3.6c-5.094.586-10.094,1.092-14.186,1.373l-.57.04c-1.583.1-3.052.17-4.3.194a15.819,15.819,0,0,1-4.2-.289l3.851-23.255s4.75.051,11.776.4l1.536.083c1.461.083,3,.178,4.607.289,2.3.158,4.714.348,7.208.578,12.041,1.1,25.681,3.087,34.318,6.658C751.654,487.9,720.527,490.624,720.527,490.624Z" transform="translate(-446.282 -319.557)" fill="#8cd0f3"/>
  <path id="Tracé_254" data-name="Tracé 254" d="M947.8,548.148v6.207s-10.026.142-7.877-1.86a30.715,30.715,0,0,0,3.772-4.354Z" transform="translate(-609.191 -365.384)" fill="#8cd0f3"/>
  <path id="Tracé_255" data-name="Tracé 255" d="M985.8,548.475l-8.142.637v-7.461s3.772-5.3,7.544.574l.218.344Z" transform="translate(-632.175 -360.137)" fill="#8cd0f3"/>
  <circle id="Ellipse_40" data-name="Ellipse 40" cx="23.302" cy="23.302" r="23.302" transform="translate(72.248 194.865)" fill="#182a7c"/>
  <path id="Tracé_256" data-name="Tracé 256" d="M336.2,608.971a18.754,18.754,0,1,1-.4-3.8A18.754,18.754,0,0,1,336.2,608.971Z" transform="translate(-221.955 -390.824)" fill="#3f8ffe"/>
  <ellipse id="Ellipse_41" data-name="Ellipse 41" cx="16.066" cy="16.106" rx="16.066" ry="16.106" transform="translate(79.456 202.037)" fill="#18218a" opacity="0.5"/>
  <path id="Tracé_257" data-name="Tracé 257" d="M345.028,590.924v.681l-5.348,17.705-4.291-18.679A18.8,18.8,0,0,1,345.028,590.924Z" transform="translate(-244.13 -390.759)" fill="#3f8ffe"/>
  <path id="Tracé_258" data-name="Tracé 258" d="M345.255,656.156a18.8,18.8,0,0,1-9.425.325l4.113-17.911Z" transform="translate(-244.396 -420.019)" fill="#3f8ffe"/>
  <path id="Tracé_259" data-name="Tracé 259" d="M364.945,631.756a18.792,18.792,0,0,1-.895,5.755h-.075l-17.705-5.348,18.311-4.2A18.9,18.9,0,0,1,364.945,631.756Z" transform="translate(-250.704 -413.609)" fill="#3f8ffe"/>
  <path id="Tracé_260" data-name="Tracé 260" d="M317.626,632.136l-17.705,5.348h-.139a18.951,18.951,0,0,1-.511-9.563Z" transform="translate(-222.075 -413.585)" fill="#3f8ffe"/>
  <circle id="Ellipse_42" data-name="Ellipse 42" cx="2.054" cy="2.054" r="2.054" transform="translate(93.468 216.089)" fill="#182a7c"/>
  <circle id="Ellipse_43" data-name="Ellipse 43" cx="23.302" cy="23.302" r="23.302" transform="translate(281.904 194.865)" fill="#182a7c"/>
  <path id="Tracé_261" data-name="Tracé 261" d="M865.876,608.971a18.754,18.754,0,1,1-.4-3.8,18.754,18.754,0,0,1,.4,3.8Z" transform="translate(-541.976 -390.824)" fill="#3f8ffe"/>
  <ellipse id="Ellipse_44" data-name="Ellipse 44" cx="16.066" cy="16.106" rx="16.066" ry="16.106" transform="translate(289.115 202.037)" fill="#18218a" opacity="0.5"/>
  <path id="Tracé_262" data-name="Tracé 262" d="M874.7,590.924v.681l-5.348,17.705-4.291-18.679A18.8,18.8,0,0,1,874.7,590.924Z" transform="translate(-564.145 -390.759)" fill="#3f8ffe"/>
  <path id="Tracé_263" data-name="Tracé 263" d="M874.935,656.156a18.8,18.8,0,0,1-9.425.325l4.113-17.911Z" transform="translate(-564.417 -420.019)" fill="#3f8ffe"/>
  <path id="Tracé_264" data-name="Tracé 264" d="M894.595,631.75a18.8,18.8,0,0,1-.895,5.755h-.091L875.9,632.154l18.311-4.2A18.911,18.911,0,0,1,894.595,631.75Z" transform="translate(-570.694 -413.603)" fill="#3f8ffe"/>
  <path id="Tracé_265" data-name="Tracé 265" d="M847.3,632.136l-17.705,5.348h-.139a18.952,18.952,0,0,1-.511-9.563Z" transform="translate(-542.09 -413.585)" fill="#3f8ffe"/>
  <circle id="Ellipse_45" data-name="Ellipse 45" cx="2.054" cy="2.054" r="2.054" transform="translate(303.128 216.089)" fill="#182a7c"/>
  <path id="Tracé_266" data-name="Tracé 266" d="M512.466,505.5l-5.854,11.8H500.14l4.326-7.445C506.853,508.469,509.541,506.992,512.466,505.5Z" transform="translate(-343.669 -339.621)" fill="#fff" opacity="0.2"/>
  <path id="Tracé_267" data-name="Tracé 267" d="M549.826,487.61,544,506.479H535.39l7.006-15.888C544.787,489.553,547.273,488.556,549.826,487.61Z" transform="translate(-364.966 -328.813)" fill="#fff" opacity="0.2"/>
  <path id="Tracé_268" data-name="Tracé 268" d="M698.181,473.718l-12.7,22.526-.57.04c-1.583.1-3.052.17-4.3.194l11.427-23.128,1.536.083C695.014,473.512,696.566,473.607,698.181,473.718Z" transform="translate(-452.705 -320.197)" fill="#fff" opacity="0.2"/>
  <path id="Tracé_269" data-name="Tracé 269" d="M366.271,448.63l-7.251,49.949,60.565-1.326,9.943-48.405Z" transform="translate(-216.909 -271.031)" fill="none" stroke="#fff" stroke-miterlimit="10" stroke-width="1" opacity="0.2"/>
  <path id="Tracé_270" data-name="Tracé 270" d="M550.9,667.434c-.875.4-2.937,1.441-3.234,3.083H412.441l-2.771-.024a28.618,28.618,0,0,0,1.583-3.064Z" transform="translate(-289.009 -437.456)" fill="#18218a" opacity="0.5"/>
  <path id="Tracé_271" data-name="Tracé 271" d="M440.644,743.445a6.3,6.3,0,0,0,2.058-3.1,2.764,2.764,0,0,0-1.437-3.167c-1.318-.507-2.731.4-3.8,1.334s-2.3,1.979-3.693,1.781a5.625,5.625,0,0,0,1.738-5.264,2.2,2.2,0,0,0-.483-1.069c-.732-.792-2.062-.447-2.937.17-2.771,1.979-3.562,5.751-3.582,9.163a17.432,17.432,0,0,1-.051-3.776,3.881,3.881,0,0,0-1.417-3.341,4.271,4.271,0,0,0-2.161-.507,4.46,4.46,0,0,0-3.507,1c-1.065,1.14-.792,3.052.139,4.307a13.7,13.7,0,0,0,3.63,2.909,8.05,8.05,0,0,1,2.593,2.474,2.443,2.443,0,0,1,.194.443h7.861A21.91,21.91,0,0,0,440.644,743.445Z" transform="translate(-295.664 -477.372)" fill="#6c63ff"/>
  <path id="Tracé_272" data-name="Tracé 272" d="M863.722,764.261a4.619,4.619,0,0,0,1.516-2.288,2.031,2.031,0,0,0-1.061-2.331c-.974-.372-2.015.3-2.8.986s-1.694,1.461-2.727,1.314a4.148,4.148,0,0,0,1.282-3.883,1.623,1.623,0,0,0-.356-.792c-.542-.578-1.52-.328-2.169.127-2.058,1.449-2.632,4.243-2.644,6.761a12.963,12.963,0,0,1-.04-2.771,2.86,2.86,0,0,0-1.045-2.462,3.166,3.166,0,0,0-1.583-.376,3.3,3.3,0,0,0-2.589.736,2.546,2.546,0,0,0,.1,3.167,10.305,10.305,0,0,0,2.68,2.145,5.937,5.937,0,0,1,1.916,1.825,1.809,1.809,0,0,1,.142.325h5.8A16.162,16.162,0,0,0,863.722,764.261Z" transform="translate(-554.439 -491.53)" fill="#6c63ff"/>
  <path id="Tracé_273" data-name="Tracé 273" d="M928.722,796.071a4.619,4.619,0,0,0,1.516-2.288,2.03,2.03,0,0,0-1.061-2.331c-.974-.372-2.015.3-2.8.985s-1.694,1.461-2.727,1.314a4.148,4.148,0,0,0,1.282-3.883,1.623,1.623,0,0,0-.356-.792c-.542-.578-1.52-.329-2.169.127-2.058,1.449-2.632,4.243-2.644,6.761a12.95,12.95,0,0,1-.04-2.771,2.86,2.86,0,0,0-1.045-2.462,3.166,3.166,0,0,0-1.583-.376,3.3,3.3,0,0,0-2.589.736,2.546,2.546,0,0,0,.1,3.167,10.3,10.3,0,0,0,2.68,2.145,5.939,5.939,0,0,1,1.916,1.825,1.809,1.809,0,0,1,.142.325h5.8A16.16,16.16,0,0,0,928.722,796.071Z" transform="translate(-593.711 -510.748)" fill="#6c63ff"/>
  <path id="Tracé_274" data-name="Tracé 274" d="M610.41,603.416s-1.381.752-2.011-3.507c-.4-2.771-1.548-8.482-2.3-12.191l-.1-.471a6.448,6.448,0,0,0,.637-.237s-4.4-17.02-3.4-20.789,0-10.521,0-10.521l-2.64-8.89s-6.539-2.256-9.052-2.882-9.555-5.011-9.555-5.011a5.424,5.424,0,0,1,.34.439l-.281-.17a10.5,10.5,0,0,1-1.385-1.583,9.967,9.967,0,0,0,2.6-5.415,11.241,11.241,0,0,0-.562-11.435,5.607,5.607,0,0,0,.962-1.8,2.936,2.936,0,0,0,.107-.918,2.442,2.442,0,0,0-1.377-2.426,2.4,2.4,0,0,0-1.892.02,8.148,8.148,0,0,1-1.607.855c-1.017.21-1.888-.606-2.688-1.211a8.086,8.086,0,0,0-4.271-1.583,4.149,4.149,0,0,0-1.979.261,7.958,7.958,0,0,0-1.639,1.231c-1.813,1.461-4.354,1.868-6.63,2.664-.435.15-.918.4-1,.792a.579.579,0,0,0,0,.237h0a.586.586,0,0,0,.024.3c-4.243.712-8.4,3.934-8.4,3.934l-.7.645a1.33,1.33,0,0,0-1.453.123l-1.4,1.1a1.318,1.318,0,0,0-.317,1.718l-10.248,9.5-.222.206v-.036s-7.916,6.013-7.916,10.268c0,3.076,2.375,4.971,3.669,5.791a9.817,9.817,0,0,0-2.557,3.958h0v.962h0v.135l-.032.174v.071l-.02.119v.245l-.028.158h0l-.036.2v.04l-.028.166v.079l-.032.182v.048l-.036.206v.091l-.091.519h0l-.047.281v.047l-.052.289v.04l-.051.293v.024l-.055.309v.067l-.055.3v.067l-.051.3v.036l-.059.34v.063l-.135.76h0l-.067.4v.059l-.067.4v.028l-.146.792v.067l-.071.4v.055l-.154.835v.036l-.079.424v.036l-.158.863v.055l-.079.427v.032l-.166.883v.047l-.083.435v.032l-.17.895v.036l-.083.435v.036l-.724.895v.04l-.087.431v.024l-.178.879v.024l-.087.427v.024l-.174.839v.036l-.083.4v.036l-.17.792v.028l-.083.4V576l-.166.748v.02l-.079.352v.036q-.083.356-.162.689h0l-.079.325v.028q-.079.324-.154.621h0l-.075.285v.032l-.071.273a6.9,6.9,0,0,1-.792,2.165,2.225,2.225,0,0,0-.463.728h0l-.032.079-.032.087-.028.087-.131.119-.028.091-.024.083-.024.095v.087l-.02.1v.087a.6.6,0,0,1-.032.19v3.115l1.188.36s.6.329,1.52.756c-.131,3.994-.5,9.4-1.5,12.71-2.233.115-7.746.348-8.744-.052-1.259-.5-9.306-1.753-6.788,4.006,1.053,2.415,3.345,4.235,5.648,5.542a7.032,7.032,0,0,1-.871.226c-2.05.4-2.62,1.081-2.541,1.785-.146,1.187,1.872,2.513,2.039,2.6.253.127,8.8,1.5,10.814.875s10.185-2.13,10.185-2.13v-.249h0s-.111-2.462-.42-4.8c.926-.135,1.936-.257,2.917-.333a3.982,3.982,0,0,0,2.153,2.751c5.407,2.771,7.168-1,7.168-1s7.311,1.405,11.4.4a12.024,12.024,0,0,0,1.049.867c1.326.954,4.9,1.607,8.89,1.655a12.6,12.6,0,0,0,3.19-.091,29.558,29.558,0,0,0,5.225-.819c4.809-1.247,5.866-5.72,6.1-7.75.19-.055.325-.253.4-.625a1.8,1.8,0,0,0,.166-.645,19.046,19.046,0,0,1,.515-2.723l5.937.332c2.652,4.813,5,8.641,5,8.641l4.021-.5a23.232,23.232,0,0,1-4.651-5.011c-2.011-3-2.011-17.416-2.011-17.416l.226-8.775v-.333c.372,2.6,3.321,10.145,3.653,10.256.241.079.479.15.712.218l.214.562c1.678,4.449,5.937,15.833,6.238,17.63.4,2.256,16.094,3.131,19.613,2S610.41,603.416,610.41,603.416Zm-56.076-49.842-5.755,8.645a57.378,57.378,0,0,0-6.167-9.009C547.518,553.38,553.4,553.562,554.334,553.574Zm-.875-22.166a1.334,1.334,0,0,0,1.389-.154l.491-.4a1.318,1.318,0,0,0,.336-1.694l.293-.289a43.767,43.767,0,0,0,5.985-1.453,11.175,11.175,0,0,0,1.464,5.082,9.919,9.919,0,0,0,.966,2.85c-.9-.075-1.884-.127-2.822-.119a14.749,14.749,0,0,0-2.45.154c-3.016.5-3.4,6.013-3.4,6.013s-6.06,2.129-9.7,2.2a4.559,4.559,0,0,1-1.362-.2l-.368-.024.495-1.354s-.214.067-.566.138q.17-.257.356-.522a95.489,95.489,0,0,1,8.89-10.228Zm-12.453,66.874a23.346,23.346,0,0,0-1.247,2.454c-1.429.277-3.376.431-4.41-.451a2.573,2.573,0,0,0-1.654-.582l.024-.047c.712-1.366,1.318-4.425,1.793-7.592a8.054,8.054,0,0,0,4.492-1.928l2.9.993.107.2.071.131.115.214.071.135.115.21.075.135.115.206.075.135.111.2.075.135.115.2.075.131.115.2.071.127.115.2.071.123.111.194.071.123.115.194.067.111.115.19.067.111.115.19.059.1.119.194.044.071c.206.336.4.657.59.958l.028.043.111.174.047.075.1.158.055.083.091.142.055.091.083.131.059.091.079.123.055.087.071.111.055.087.067.1.055.087.063.095.055.083h0a25.5,25.5,0,0,1-6,.273Z" transform="translate(-349.786 -344.554)" fill="url(#linear-gradient)"/>
  <path id="Tracé_275" data-name="Tracé 275" d="M753.883,714.1c-3.432,1.1-18.754.245-19.122-1.979-.293-1.769-4.445-12.9-6.084-17.258l-.657-1.742,7.968-1.718s.293,1.4.7,3.388c.736,3.634,1.848,9.242,2.244,11.934.614,4.168,1.979,3.432,1.979,3.432S757.3,712.992,753.883,714.1Z" transform="translate(-481.349 -451.938)" fill="#ae6e78"/>
  <path id="Tracé_276" data-name="Tracé 276" d="M668.092,566s-.614,3.677,4.659,7.125.736,15.813.736,15.813l-3.9.218a9.583,9.583,0,0,1-10.078-8.676h0s2.2-3.562-1.841-12.749Z" transform="translate(-438.845 -376.174)" fill="#ae6e78"/>
  <path id="Tracé_277" data-name="Tracé 277" d="M597.174,539.877s-7.588,7.4-11.115,12.5a17.987,17.987,0,0,0-1.144,1.844c-2.573,4.9-8.558-3.068-6.487-5.823l1.429-1.334,13.759-12.825s9.44-7.354,14.218-2.082S597.174,539.877,597.174,539.877Z" transform="translate(-390.71 -354.576)" fill="#ae6e78"/>
  <circle id="Ellipse_46" data-name="Ellipse 46" cx="11.032" cy="11.032" r="11.032" transform="translate(212.286 172.37)"/>
  <path id="Tracé_278" data-name="Tracé 278" d="M530.315,730.377s-8.213.491-9.44,0-9.068-1.714-6.6,3.927,11.768,7.968,11.768,7.968l6.729-1.718Z" transform="translate(-351.919 -475.208)" fill="#7679b4"/>
  <path id="Tracé_279" data-name="Tracé 279" d="M530.315,730.377s-8.213.491-9.44,0-9.068-1.714-6.6,3.927,11.768,7.968,11.768,7.968l6.729-1.718Z" transform="translate(-351.919 -475.208)" opacity="0.05"/>
  <path id="Tracé_280" data-name="Tracé 280" d="M616.816,670.08l16.486,6.7,9.377,19.918s.123,6.986-6,8.581-14.709.859-16.917-.736-11.277-11.032-11.277-11.032Z" transform="translate(-409.125 -439.057)" fill="#7679b4"/>
  <path id="Tracé_281" data-name="Tracé 281" d="M615.7,670.08l14.269,5.348,8.118,15.94s.107,5.593-5.2,6.868-12.734.685-14.645-.59-9.761-8.831-9.761-8.831Z" transform="translate(-409.125 -439.057)" opacity="0.05"/>
  <path id="Tracé_282" data-name="Tracé 282" d="M574.366,730.208s-4.291,1.473-6,0-4.781.368-4.781.368l1.354,7.968s6.127-1.35,9.44-.982Z" transform="translate(-381.998 -475.04)" fill="#ae6e78"/>
  <path id="Tracé_283" data-name="Tracé 283" d="M574.366,730.208s-4.291,1.473-6,0-4.781.368-4.781.368l1.354,7.968s6.127-1.35,9.44-.982Z" transform="translate(-381.998 -475.04)" opacity="0.05"/>
  <path id="Tracé_284" data-name="Tracé 284" d="M578.9,668.991l-3.915-1.35s-4.291,3.8-7.125.614,2.573-16.427,2.573-16.427l5.759-9.318,4.168,13.118,3.8,6.373Z" transform="translate(-384.085 -422.4)" fill="#565388"/>
  <path id="Tracé_285" data-name="Tracé 285" d="M578.9,668.991l-3.915-1.35s-4.291,3.8-7.125.614,2.573-16.427,2.573-16.427l5.759-9.318,4.168,13.118,3.8,6.373Z" transform="translate(-384.085 -422.4)" opacity="0.05"/>
  <path id="Tracé_286" data-name="Tracé 286" d="M586.074,621.07l8.827,1.223,1.718,8.091-10.909-.614Z" transform="translate(-353.87 -375.215)" fill="#565388"/>
  <path id="Tracé_287" data-name="Tracé 287" d="M586.074,621.07l8.827,1.223,1.718,8.091-10.909-.614Z" transform="translate(-353.87 -375.215)" opacity="0.05"/>
  <path id="Tracé_288" data-name="Tracé 288" d="M635.4,595.45s3.677,14.1,15.437,3.923l3.186,40.449s-3.923,6.25-4.536,11.875-11.277-17.416-17.65-17.527-12.686-9.009-12.686-9.009l7.172-14.772Z" transform="translate(-415.572 -393.967)" opacity="0.1"/>
  <path id="Tracé_289" data-name="Tracé 289" d="M635.708,594.52s3.677,14.1,15.437,3.923l3.186,40.449s-3.923,6.25-4.536,11.875-11.277-17.416-17.65-17.527-12.686-9.009-12.686-9.009l7.172-14.772Z" transform="translate(-415.759 -393.405)" fill="#f2f1f2"/>
  <path id="Tracé_290" data-name="Tracé 290" d="M599.978,570.807s-5.146-.859-8.091-.368-3.309,5.882-3.309,5.882-8.336,2.941-11.154,1.979c0,0-13.854-.982-13.854,3.186s4.417,6.1,4.417,6.1,19.233.649,19.368.614c4.414-1.227-.123,0-.123,0l-7.968,12.013,7.354,10.173,7.845-5.759s.982-5.4,3.562-8.091c1.837-1.928,4.239-10.6,5.462-15.405a7.877,7.877,0,0,0-.891-6.013Z" transform="translate(-381.992 -378.764)" opacity="0.1"/>
  <path id="Tracé_291" data-name="Tracé 291" d="M586.059,578.032a17.993,17.993,0,0,0-1.144,1.844c-2.573,4.9-8.558-3.068-6.487-5.823l1.429-1.334C579.334,579.045,584.484,578.372,586.059,578.032Z" transform="translate(-390.71 -380.234)" opacity="0.1"/>
  <path id="Tracé_292" data-name="Tracé 292" d="M623.138,613.508H623S627.552,612.281,623.138,613.508Z" transform="translate(-417.898 -404.548)" opacity="0.1"/>
  <path id="Tracé_293" data-name="Tracé 293" d="M599.054,570.807s-5.146-.859-8.091-.368-3.309,5.882-3.309,5.882-8.336,2.941-11.154,1.979l.491-1.35s-7.473,2.327-6.618-5.53c0,0-7.722,5.882-7.722,10.05s4.413,6.119,4.413,6.119,19.233.649,19.368.614c4.413-1.227-.123,0-.123,0l-7.968,12.013,7.354,10.173,7.845-5.759s.982-5.4,3.562-8.091c1.837-1.928,4.239-10.6,5.462-15.405a7.877,7.877,0,0,0-.891-6.013Z" transform="translate(-381.436 -378.764)" fill="#565388"/>
  <path id="Tracé_294" data-name="Tracé 294" d="M718.36,672.25v.673A1.461,1.461,0,0,1,718.36,672.25Z" transform="translate(-475.489 -440.368)" opacity="0.1"/>
  <path id="Tracé_295" data-name="Tracé 295" d="M736.685,694.828a14.009,14.009,0,0,1-8.008.071l-.657-1.742,7.968-1.718S736.277,692.849,736.685,694.828Z" transform="translate(-481.349 -451.962)" opacity="0.1"/>
  <path id="Tracé_296" data-name="Tracé 296" d="M689.62,579.34s6.864,4.291,9.318,4.9,8.827,2.818,8.827,2.818l2.573,8.708s.982,6.618,0,10.291-10.173,10.663-9.682,9.559l-.245,9.682s0,14.1,1.979,17.02-3.741-2.882-3.741-2.882-6.927-10.236-7.782-16.731.487-31.48.487-31.48l-1.227-1.718S692.684,582.895,689.62,579.34Z" transform="translate(-458.148 -384.234)" opacity="0.1"/>
  <path id="Tracé_297" data-name="Tracé 297" d="M690.55,579.34s6.863,4.291,9.318,4.9,8.827,2.818,8.827,2.818l2.573,8.708s.982,6.618,0,10.291,3.309,20.349,3.309,20.349a13.662,13.662,0,0,1-9.44,0c-.368-.123-4.045-9.682-3.562-10.786l-.245,9.682s0,14.1,1.979,17.02a22.7,22.7,0,0,0,4.536,4.9l-3.923.491s-11.289-18.493-12.148-24.976.491-31.5.491-31.5l-1.227-1.718S693.614,582.895,690.55,579.34Z" transform="translate(-458.71 -384.234)" fill="#565388"/>
  <path id="Tracé_298" data-name="Tracé 298" d="M572.175,655.566s-8.213-11.875-7.845-17.416c0,0-.982,7.6-2.082,8.091s-12.136-2.945-12.136-2.945-.491-3.562.736-4.781,5.027-23.9,5.027-23.9,1.35-6.127,7.232-6.5,19.122,29.54,19.122,29.54S584.188,655.566,572.175,655.566Z" transform="translate(-373.802 -401.617)" fill="#7679b4"/>
  <path id="Tracé_299" data-name="Tracé 299" d="M552.015,687.11s.245,17.159-2.818,19.981,8.95,4.291,8.95,4.291-2.082-4.168-.368-7.477S560.6,687.11,560.6,687.11Z" transform="translate(-373.005 -449.346)" fill="#ae6e78"/>
  <path id="Tracé_300" data-name="Tracé 300" d="M535.555,734.614s-1.227-3.064-4.536-.614c0,0-2.941,6.864-8.091,7.845s-.736,3.923-.491,4.045,8.581,1.472,10.541.859,9.927-2.082,9.927-2.082-.368-8.091-1.583-8.708S540.7,739.629,535.555,734.614Z" transform="translate(-355.935 -477.102)" opacity="0.05"/>
  <path id="Tracé_301" data-name="Tracé 301" d="M535.555,735.2s-1.227-3.064-4.536-.614c0,0-2.941,6.864-8.091,7.845s-.736,3.923-.491,4.045,8.581,1.472,10.541.859,9.931-2.078,9.931-2.078-.368-8.091-1.583-8.708S540.7,740.227,535.555,735.2Z" transform="translate(-355.935 -477.459)" fill="#7679b4"/>
  <path id="Tracé_302" data-name="Tracé 302" d="M611.226,542.117a57.013,57.013,0,0,0,3.341,4.659,1.294,1.294,0,0,1-.186,1.86l-.479.376a1.294,1.294,0,0,1-1.844-.257,14.618,14.618,0,0,0-3.958-3.748,1.294,1.294,0,0,1-.119-2.114l1.365-1.077a1.294,1.294,0,0,1,1.88.3Z" transform="translate(-408.526 -361.395)" fill="#565388"/>
  <path id="Tracé_303" data-name="Tracé 303" d="M669.712,570.9a5.8,5.8,0,0,1-1.283-3.994L658,568.644a33.651,33.651,0,0,1,1.781,5A9.8,9.8,0,0,0,669.712,570.9Z" transform="translate(-439.044 -376.724)" opacity="0.1"/>
  <circle id="Ellipse_47" data-name="Ellipse 47" cx="9.805" cy="9.805" r="9.805" transform="translate(213.577 177.334)" fill="#ae6e78"/>
  <path id="Tracé_304" data-name="Tracé 304" d="M646,528.884a24.442,24.442,0,0,1,2.688-.744,4.475,4.475,0,0,1,3.1,1.484,7.4,7.4,0,0,0,2.795,2.019,6.911,6.911,0,0,0,2.24.151,2.082,2.082,0,0,0,1.187-.3,1.5,1.5,0,0,0,.4-.606,5.759,5.759,0,0,0-.036-4.667.792.792,0,0,1-.111-.507.767.767,0,0,1,.17-.281,8.572,8.572,0,0,0,1.947-3,2.511,2.511,0,0,0-1.239-3.028,2.331,2.331,0,0,0-1.844,0,7.477,7.477,0,0,1-1.583.835c-.993.206-1.845-.594-2.62-1.188a7.866,7.866,0,0,0-4.16-1.552,4.029,4.029,0,0,0-1.943.257,7.772,7.772,0,0,0-1.583,1.187c-1.769,1.429-4.247,1.829-6.464,2.609-.423.15-.895.372-.974.792s.4.843.871,1.025a3.187,3.187,0,0,1,1.338.669c.4.475.269,1.148.34,1.746.146,1.187,1.188,1.833,2.339,2.177C643.8,528.266,645.05,529.042,646,528.884Z" transform="translate(-426.929 -346.856)" opacity="0.1"/>
  <path id="Tracé_305" data-name="Tracé 305" d="M646.081,528.312a24.439,24.439,0,0,1,2.688-.744,4.475,4.475,0,0,1,3.1,1.484,7.4,7.4,0,0,0,2.794,2.019,6.913,6.913,0,0,0,2.24.15,2.082,2.082,0,0,0,1.187-.3,1.5,1.5,0,0,0,.4-.606,5.759,5.759,0,0,0-.036-4.667.792.792,0,0,1-.111-.507.767.767,0,0,1,.17-.281,8.572,8.572,0,0,0,1.947-3,2.511,2.511,0,0,0-1.239-3.028,2.331,2.331,0,0,0-1.844,0,7.48,7.48,0,0,1-1.583.835c-.994.206-1.845-.594-2.62-1.188a7.865,7.865,0,0,0-4.1-1.52,4.029,4.029,0,0,0-1.943.257,7.767,7.767,0,0,0-1.583,1.187c-1.769,1.429-4.247,1.829-6.464,2.608-.424.151-.895.372-.974.792s.4.843.871,1.025a3.185,3.185,0,0,1,1.338.669c.4.475.269,1.148.34,1.746.147,1.187,1.188,1.833,2.339,2.177C643.884,527.695,645.134,528.471,646.081,528.312Z" transform="translate(-427.014 -346.529)"/>
  <path id="Tracé_306" data-name="Tracé 306" d="M638.29,664.84s7,1.187,8.752,4.968,12.271,14.008,12.271,14.008" transform="translate(-427.136 -435.891)" opacity="0.05"/>
  <g id="Groupe_108" data-name="Groupe 108" transform="translate(176.212 212.241)" opacity="0.05">
    <path id="Tracé_307" data-name="Tracé 307" d="M562.492,692.891c-1.1.491-12.136-2.941-12.136-2.941a11.718,11.718,0,0,1,.036-3.21,9.775,9.775,0,0,0-.281,4.069s11.032,3.432,12.136,2.941c.364-.162.716-1.1,1.025-2.3C563.027,692.218,562.765,692.78,562.492,692.891Z" transform="translate(-550.013 -661.364)"/>
    <path id="Tracé_308" data-name="Tracé 308" d="M558.567,622.63a7.217,7.217,0,0,0-.23.76s-2.66,15.884-4.247,21.77C555.559,640.383,558.329,624.043,558.567,622.63Z" transform="translate(-552.476 -622.63)"/>
    <path id="Tracé_309" data-name="Tracé 309" d="M594.277,699.236s-8.213-11.875-7.845-17.416c0,0-.087.689-.241,1.662.372,5.795,7.841,16.617,7.841,16.617,5.712,0,8.265-4.045,9.369-8.292C602.181,695.717,599.6,699.236,594.277,699.236Z" transform="translate(-571.87 -658.391)"/>
  </g>
  <path id="Tracé_310" data-name="Tracé 310" d="M552.82,688.3s7.489,4.124,10.189,2.161.982-5.027.982-5.027L561.9,682h-6.986l-2.327,4.045Z" transform="translate(-375.358 -446.259)" fill="#7679b4"/>
  <path id="Tracé_311" data-name="Tracé 311" d="M622.245,723.575s.491-9.8-12.013-9.682-.491,0-.491,0-4.9-1.473-11.032,1.979a24.453,24.453,0,0,1-13.118,2.7s-5.641,9.318-.368,12.013,6.986-1,6.986-1,10.786,2.082,13.24-.736a12.583,12.583,0,0,0,13.6,2.715S625.186,728.844,622.245,723.575Z" transform="translate(-393.714 -465.34)" fill="#7679b4"/>
</svg>
