<svg id="Groupe_99" data-name="Groupe 99" xmlns="http://www.w3.org/2000/svg" width="380.017" height="295.785" viewBox="0 0 380.017 295.785">
  <path id="Tracé_41" data-name="Tracé 41" d="M372.471,242.026,297,147.719a25.338,25.338,0,0,1-12.2,6.163c-14.208,2.8-28.083-6.9-30.991-21.67a27.372,27.372,0,0,1,9.449-26.663L237.523,73.392,90.923,198.685,225.87,367.318Z" transform="translate(-90.923 -73.392)" fill="#f2f2f2"/>
  <line id="Ligne_14" data-name="Ligne 14" x2="347.837" transform="translate(32.18 294.785)" fill="none" stroke="#3f3d56" stroke-miterlimit="10" stroke-width="2"/>
  <circle id="Ellipse_18" data-name="Ellipse 18" cx="5.78" cy="5.78" r="5.78" transform="translate(236.856 16.515)" fill="none" stroke="#3f3d56" stroke-miterlimit="10" stroke-width="2"/>
  <circle id="Ellipse_19" data-name="Ellipse 19" cx="5.78" cy="5.78" r="5.78" transform="translate(313.239 184.557)" fill="none" stroke="#3f3d56" stroke-miterlimit="10" stroke-width="2"/>
  <circle id="Ellipse_20" data-name="Ellipse 20" cx="5.78" cy="5.78" r="5.78" transform="translate(61.083 31.008)" fill="none" stroke="#3f3d56" stroke-miterlimit="10" stroke-width="2"/>
  <circle id="Ellipse_21" data-name="Ellipse 21" cx="21.276" cy="21.276" r="21.276" transform="translate(166.5 33.457)" fill="#f2f2f2"/>
  <path id="Tracé_42" data-name="Tracé 42" d="M228.492,182.771h94.251A20.036,20.036,0,0,1,342.289,198.4l47.623,211.235a16.193,16.193,0,0,1-15,19.735l-96.891,4.774a21.393,21.393,0,0,1-22.1-17.559L228.9,267.24l-2.01.574-5.169-28.307,2.069-.517L216.251,197.3a12.336,12.336,0,0,1,12.241-14.531Z" transform="translate(-167.039 -139.926)" fill="#3f3d56"/>
  <path id="Tracé_43" data-name="Tracé 43" d="M324.78,194.4h11a13.846,13.846,0,0,1,13.528,10.895L395.022,414.8a8.58,8.58,0,0,1-7.821,10.39l-96.577,6.329a11.112,11.112,0,0,1-11.662-9.118L239.955,205.854a9.732,9.732,0,0,1,9.578-11.457H259.97a4.593,4.593,0,0,1,4.435,3.4h0a4.055,4.055,0,0,0,3.915,3h49.549a6.931,6.931,0,0,0,6.911-6.4Z" transform="translate(-181.484 -146.998)" fill="#6c63ff"/>
  <rect id="Rectangle_61" data-name="Rectangle 61" width="99.935" height="0.492" transform="translate(74.129 101.55)" fill="#2f2e41"/>
  <rect id="Rectangle_62" data-name="Rectangle 62" width="100.919" height="0.492" transform="translate(77.083 117.55)" fill="#2f2e41"/>
  <path id="Tracé_44" data-name="Tracé 44" d="M193,246.555l2.271-3.028-.394-.3-1.962,2.617-7.562-6.187-.311.382Z" transform="translate(-112.557 -145.784)" fill="#2f2e41"/>
  <path id="Tracé_45" data-name="Tracé 45" d="M226.3,428.787l2.271-3.027-.394-.295-1.963,2.616-7.562-6.187-.311.381Z" transform="translate(-132.816 -256.635)" fill="#2f2e41"/>
  <rect id="Rectangle_63" data-name="Rectangle 63" width="104.635" height="0.492" transform="translate(84.462 174.41) rotate(-1.213)" fill="#2f2e41"/>
  <rect id="Rectangle_64" data-name="Rectangle 64" width="106.609" height="0.492" transform="matrix(1, -0.023, 0.023, 1, 85.692, 189.177)" fill="#2f2e41"/>
  <path id="Tracé_46" data-name="Tracé 46" d="M414.945,620.213a23.384,23.384,0,1,0,46.768,0c0-.293,0-.583-.017-.874a23.381,23.381,0,1,0-46.754.874Z" transform="translate(-288.018 -391.529)" opacity="0.1"/>
  <path id="Tracé_47" data-name="Tracé 47" d="M420.614,644.138c0,.293,0,.583.017.874a23.387,23.387,0,0,0,44.535-9.981c0-.293,0-.583-.017-.874a23.387,23.387,0,0,0-44.535,9.981Z" transform="translate(-291.471 -406.347)" opacity="0.1"/>
  <circle id="Ellipse_22" data-name="Ellipse 22" cx="14.415" cy="14.415" r="14.415" transform="translate(257.021 77.604)" fill="#2f2e41"/>
  <path id="Tracé_48" data-name="Tracé 48" d="M722.313,693.631l2.742,11.751H718.4l-2.742-13.318Z" transform="translate(-435.326 -420.977)" fill="#9f616a"/>
  <path id="Tracé_49" data-name="Tracé 49" d="M640.313,696.064v10.968l-6.659.783V696.064Z" transform="translate(-385.447 -423.41)" fill="#9f616a"/>
  <path id="Tracé_50" data-name="Tracé 50" d="M808.5,450.849s-.783,16.843-1.567,18.019-7.834,18.019-7.834,18.019l-3.525-10.968s5.484-9.009,4.7-14.1a58.531,58.531,0,0,1-.29-11.358Z" transform="translate(-519.558 -302.759)" fill="#9f616a"/>
  <circle id="Ellipse_23" data-name="Ellipse 23" cx="10.968" cy="10.968" r="10.968" transform="translate(255.65 85.417)" fill="#9f616a"/>
  <path id="Tracé_51" data-name="Tracé 51" d="M773.9,322.456s-.392,15.668,2.35,18.019-15.668.392-15.668.392,3.917-10.968.783-13.318S773.9,322.456,773.9,322.456Z" transform="translate(-498.268 -224.896)" fill="#9f616a"/>
  <path id="Tracé_52" data-name="Tracé 52" d="M721.163,361.334s2.35-4.309,5.484-3.917,13.318,1.175,13.71,1.959a23.4,23.4,0,0,0,2.35,4.309c.783.783,6.659,1.959,7.051,6.659s-14.1,33.3-14.1,33.3,1.958,6.659,1.567,8.226,1.958,6.267,1.567,8.226,5.876,13.71,2.742,28.986v24.678s10.576,42.7,7.443,45.83-13.71,1.175-15.668,0-10.184-60.323-10.184-60.323L719.2,439.284l-.392,43.871s.783,36.821-1.958,38-13.318,1.567-14.1-.783c-.611-1.833-3.6-50.6-4.893-71.983a79.869,79.869,0,0,1,1.725-22c1.63-7.395,4-16.082,6.694-19.608,5.092-6.659,8.226-27.811,8.226-27.811l-6.659-12.143s3.917-3.917,6.267-3.917S721.163,361.334,721.163,361.334Z" transform="translate(-460.029 -246.147)" fill="#2f2e41"/>
  <path id="Tracé_53" data-name="Tracé 53" d="M812.708,383.456l2.066,1.406s1.46,25.23.285,26.8-9.345.8-9.961-.578S812.708,383.456,812.708,383.456Z" transform="translate(-525.329 -262.002)" fill="#2f2e41"/>
  <path id="Tracé_54" data-name="Tracé 54" d="M680.472,438.619c1.147,7.954,2.151,15.035-3.711,21.441a110.018,110.018,0,0,1-19.794,17.146c-.719,1.9-11.276,15.892-11.812,10.313s3.11-9.954,8.293-14.672,12.434-14.956,16.525-20.573,2.407-9.12,2.265-13.812S678.863,438.676,680.472,438.619Z" transform="translate(-428.025 -294.224)" fill="#9f616a"/>
  <path id="Tracé_55" data-name="Tracé 55" d="M716.009,781.255s-.392,4.387-1.567,5.563-4.309,2.742-3.917,7.051,2.938,4.5,2.938,4.5l-.2-.979,1.175.392.2.588h10.968a35.312,35.312,0,0,0-.2-6.071c-.392-1.959-.392-11.359-1.567-10.968s-4.309.783-5.092,2.35S715.617,784.7,716.009,781.255Z" transform="translate(-467.801 -503.979)" fill="#2f2e41"/>
  <path id="Tracé_56" data-name="Tracé 56" d="M811.6,781.255s.392,4.387,1.567,5.563,4.309,2.742,3.917,7.051-2.938,4.5-2.938,4.5l.2-.979-1.175.392-.2.588H802a35.307,35.307,0,0,1,.2-6.071c.392-1.959.392-11.359,1.567-10.968s4.309.783,5.092,2.35S811.99,784.7,811.6,781.255Z" transform="translate(-523.436 -503.979)" fill="#2f2e41"/>
  <path id="Tracé_57" data-name="Tracé 57" d="M721.319,378.456l-5.484,1.175s0,8.618-1.567,12.143-4.309,11.751-3.134,12.143,12.143,5.876,12.926,2.742S726.8,378.456,721.319,378.456Z" transform="translate(-468.02 -258.96)" fill="#2f2e41"/>
  <circle id="Ellipse_24" data-name="Ellipse 24" cx="14.415" cy="14.415" r="14.415" transform="translate(272.637 58.625)" fill="#2f2e41"/>
  <path id="Tracé_58" data-name="Tracé 58" d="M820.917,269.394a14.416,14.416,0,0,1-22.26-7.569,14.416,14.416,0,1,0,28.12-5.911,14.41,14.41,0,0,1-5.859,13.48Z" transform="translate(-521.431 -184.419)" fill="#2f2e41"/>
  <circle id="Ellipse_25" data-name="Ellipse 25" cx="10.571" cy="10.571" r="10.571" transform="translate(264.709 83.85)" fill="#2f2e41"/>
  <ellipse id="Ellipse_26" data-name="Ellipse 26" cx="9.37" cy="7.328" rx="9.37" ry="7.328" transform="translate(257.021 83.13)" fill="#2f2e41"/>
  <ellipse id="Ellipse_27" data-name="Ellipse 27" cx="1.778" cy="3.146" rx="1.778" ry="3.146" transform="translate(262.113 94.82)" fill="#a0616a"/>
</svg>
