<svg id="Groupe_105" data-name="Groupe 105" xmlns="http://www.w3.org/2000/svg" width="365.023" height="255.4" viewBox="0 0 365.023 255.4">
  <path id="Tracé_73" data-name="Tracé 73" d="M213.211,80.535c-14.838-5.643-30.517-10.357-46.524-9.764-23.535.869-46.126,14.111-57.19,33.554-9.387,16.474-10.545,35.783-14.589,54.065-4.976,22.521-14.525,43.931-24.72,64.863-5.475,11.245-11.252,22.733-12.151,35.059-1.246,17.114,7.5,34.167,21.211,45.551s31.925,17.39,50.2,18.7c9.727.7,19.892.051,28.531-4.185,9.141-4.481,15.8-12.579,24.982-17,8.5-4.094,18.454-4.667,28-4.135a132.872,132.872,0,0,1,36.558,7.272c13.346,4.687,25.757,11.478,39.056,16.232s28.194,7.407,41.8,3.441c12.794-3.727,22.895-12.777,32-21.942A388.933,388.933,0,0,0,401.2,253.973c8.219-11.518,15.868-23.669,19.5-37.093,6.949-25.666-2.613-54.621-23.821-72.149-17.572-14.521-41.153-20.824-64.237-24.649-21.05-3.488-45.389-3.7-64.765-12.794C249.4,98.608,232.588,87.908,213.211,80.535Z" transform="translate(-57.92 -70.72)" fill="#6c63ff" opacity="0.1"/>
  <path id="Tracé_74" data-name="Tracé 74" d="M632.58,617.229v12.232h3.478l-.673-13.131Z" transform="translate(-419.598 -408.822)" fill="#aaabb0"/>
  <path id="Tracé_75" data-name="Tracé 75" d="M477.41,609.9v12.232h3.481L480.218,609Z" transform="translate(-316.672 -403.96)" fill="#aaabb0"/>
  <rect id="Rectangle_87" data-name="Rectangle 87" width="4.488" height="21.774" rx="2.244" transform="translate(217.023 185.738)" fill="#aaabb0"/>
  <rect id="Rectangle_88" data-name="Rectangle 88" width="4.488" height="26.598" rx="2.244" transform="translate(159.449 180.909)" fill="#aaabb0"/>
  <path id="Tracé_76" data-name="Tracé 76" d="M732.84,233.708s4.488-1.909,5.161,0,1.01,18.407,1.01,18.407h-4.266Z" transform="translate(-505.602 -178.269)" fill="#aaabb0"/>
  <path id="Tracé_77" data-name="Tracé 77" d="M574.675,233.708s-4.491-1.909-5.165,0-1.01,18.407-1.01,18.407h4.266Z" transform="translate(-396.594 -178.269)" fill="#aaabb0"/>
  <path id="Tracé_78" data-name="Tracé 78" d="M529.583,115.337l-.673,13.693h3.03V115Z" transform="translate(-350.832 -76.284)" fill="#aaabb0"/>
  <path id="Tracé_79" data-name="Tracé 79" d="M581.17,244.657l.9-19.754s-.337-4.377,10.323-3.03,41.864,4.04,41.864,4.04v18.743Z" transform="translate(-404.998 -170.811)" fill="#33323d"/>
  <path id="Tracé_80" data-name="Tracé 80" d="M596.842,597.279l-1.684,30.188s-24.693,13.693-54.658.673l2.693-31.76Z" transform="translate(-378.021 -419.396)" fill="#33323d"/>
  <path id="Tracé_81" data-name="Tracé 81" d="M580.25,162.953l.559,19.528H615.6l-2.02-25.811Z" transform="translate(-384.886 -103.924)" fill="#444053"/>
  <rect id="Rectangle_89" data-name="Rectangle 89" width="32.773" height="41.524" transform="translate(166.125 164.974)" fill="#4c4981"/>
  <path id="Tracé_82" data-name="Tracé 82" d="M612.815,605.546s4.714-3.7,5.5-2.582-2.8,5.949-4.263,5.387S612.815,605.546,612.815,605.546Z" transform="translate(-425.98 -423.623)" fill="#ffb9b9"/>
  <rect id="Rectangle_90" data-name="Rectangle 90" width="215.134" height="107.74" transform="translate(102.525 72.721)" fill="#504f60"/>
  <path id="Tracé_83" data-name="Tracé 83" d="M580.026,131.958s-1.683-15.713,0-17.619,29.965-19.979,56.116,1.232c0,0,2.468.114,2.02,5.724a67.33,67.33,0,0,0,.054,10.663S581.935,136,580.026,131.958Z" transform="translate(-403.743 -93.69)" fill="#33323d"/>
  <path id="Tracé_84" data-name="Tracé 84" d="M580.026,131.958s-1.683-15.713,0-17.619,29.965-19.979,56.116,1.232c0,0,2.468.114,2.02,5.724a67.33,67.33,0,0,0,.054,10.663S581.935,136,580.026,131.958Z" transform="translate(-403.743 -93.69)" opacity="0.1"/>
  <path id="Tracé_85" data-name="Tracé 85" d="M580.026,137.958s-1.683-15.713,0-17.619,29.965-19.979,56.116,1.232c0,0,2.468.114,2.02,5.724a67.33,67.33,0,0,0,.054,10.663S581.935,142,580.026,137.958Z" transform="translate(-403.743 -97.67)" fill="#33323d"/>
  <path id="Tracé_86" data-name="Tracé 86" d="M726.684,169.05s1.794,6.734,1.236,7.855-.458,4.266-.458,4.266.121,2.02-.778,2.242-1.683.337-.956,1.01,0,1.683,0,1.683a5.244,5.244,0,0,0,0,2.582c.394,1.01-2.3,1.431-2.074,2.694s.983,4.825,0,4.939.337,4.488-.549,4.488-1.515,7.855-1.515,7.855-6.229-5.273-10.38-3.815c0,0,.337-4.377,1.683-5.949s.939-5.609.939-5.609l6.68-20.09Z" transform="translate(-491.255 -135.943)" fill="#4c4981"/>
  <path id="Tracé_87" data-name="Tracé 87" d="M636.956,397.894c-1.458,1.613-3.03-7-3.03-7s-4.151,5.724-6.845,1.909c-1.865-2.643-.394-10.131.673-14.478.478-1.933.882-3.246.882-3.246l6.06-1.01s.02,1.32.155,2.922c.182,2.165.576,4.852,1.414,5.495C637.744,383.6,638.417,396.268,636.956,397.894Z" transform="translate(-434.859 -271.936)" fill="#ae6e79"/>
  <path id="Tracé_88" data-name="Tracé 88" d="M615.556,139.191s-10.552-.111-13.131,5.5-2.693,7.522-3.7,8.417,11,5.613,11,5.613l.562,19.3a6.414,6.414,0,0,1,6.171-1.306c3.815,1.081,8.643,0,8.643,0s-.226-.407,2.919,0,13.131-4.865,13.131-4.865.165-8.444-.057-10.242,7.124-15.01,7.124-15.01,5.724-5.5-.222-7.407c0,0-2.1-3.172-7.518-3.141S615.556,139.191,615.556,139.191Z" transform="translate(-416.6 -114.054)" opacity="0.1"/>
  <path id="Tracé_89" data-name="Tracé 89" d="M615.556,138.191s-10.552-.111-13.131,5.5-2.693,7.522-3.7,8.417,11,5.613,11,5.613l.562,19.3a6.414,6.414,0,0,1,6.171-1.306c3.815,1.081,8.643,0,8.643,0s-.226-.407,2.919,0,13.131-4.865,13.131-4.865,3.926-6.4,3.7-8.192,7.855-15.377,7.855-15.377,1.236-7.182-4.714-9.091c0,0-2.1-3.172-7.518-3.141S615.556,138.191,615.556,138.191Z" transform="translate(-416.6 -113.39)" fill="#4c4981"/>
  <path id="Tracé_90" data-name="Tracé 90" d="M638.017,376.989c-2.313-.72-5.943.869-7.1,1.347.478-1.933.882-3.246.882-3.246l6.06-1.01S637.873,375.4,638.017,376.989Z" transform="translate(-437.997 -271.942)" opacity="0.1"/>
  <path id="Tracé_91" data-name="Tracé 91" d="M601.5,185.71H598.25s-.673,6.848,0,8.868,1.01,1.727.784,3.222,1.572,3.784,1.572,3.784.222,5.643,1.347,7.744-1.236,11.521-1.236,11.521a13.554,13.554,0,0,0,2.8,4.377c1.909,1.906,2.919,8.976,2.357,11.67a3.234,3.234,0,0,0,1.572,3.7s.9,12.572,1.236,12.572,6.845-3.367,8.865-.451l-1.572-11.559.114-22.333s-2.135-2.808-1.01-5.276-.9-8.306-.9-8.306l-2.919-13.016Z" transform="translate(-416.129 -146.994)" fill="#4c4981"/>
  <path id="Tracé_92" data-name="Tracé 92" d="M534.67,711.826s-4.714-1.01-4.825,0-5.613,11.336,1.236,14.367,25.137,9.538,54.88,1.121c0,0,1.906.673,1.458-3.478s-.448-8.754-.448-8.754a24.1,24.1,0,0,0-7.858-.784C575.746,714.748,546.454,720.694,534.67,711.826Z" transform="translate(-369.498 -495.675)" fill="#33323d"/>
  <path id="Tracé_93" data-name="Tracé 93" d="M534.67,711.826s-4.714-1.01-4.825,0-5.613,11.336,1.236,14.367,25.137,9.538,54.88,1.121c0,0,1.906.673,1.458-3.478s-.448-8.754-.448-8.754a24.1,24.1,0,0,0-7.858-.784C575.746,714.748,546.454,720.694,534.67,711.826Z" transform="translate(-369.498 -495.675)" opacity="0.1"/>
  <path id="Tracé_94" data-name="Tracé 94" d="M534.67,707.826s-4.714-1.01-4.825,0-5.613,11.336,1.236,14.366,25.137,9.538,54.88,1.121c0,0,1.906.673,1.458-3.478s-.448-8.754-.448-8.754a24.1,24.1,0,0,0-7.858-.784C575.746,710.748,546.454,716.694,534.67,707.826Z" transform="translate(-369.498 -493.022)" fill="#33323d"/>
  <path id="Tracé_95" data-name="Tracé 95" d="M628.057,196.363a44.33,44.33,0,0,0-1.047,4.9c-.1,1.667.542,3.562,2.081,4.215a7.009,7.009,0,0,1,1.242.505,2.731,2.731,0,0,1,.959,1.862,10.168,10.168,0,0,1,.118,2.768,4.685,4.685,0,0,0,.175,2.741c.8,1.438,2.9,1.226,4.5.822l-.549,4.252a.808.808,0,0,0,.983,1.121,8.58,8.58,0,0,0,4-1.01,3.6,3.6,0,0,0,1.848-3.461c-.263-1.589-1.906-2.852-1.683-4.448.172-1.236,1.38-2.02,2.175-2.97a5.711,5.711,0,0,0,.387-6.343,7.217,7.217,0,0,0-5.549-3.407,14.859,14.859,0,0,1-3.7-.4,2.808,2.808,0,0,1-1.717-1.811" transform="translate(-435.397 -153.614)" fill="#444053"/>
  <path id="Tracé_96" data-name="Tracé 96" d="M513.84,618.74l1.175-2.559s6.343-5.909,7.8-6.323,7.407-2.219,8.306-2.219,17.286-.9,17.286-.9l1.906,4.491-20.565,4.515-6.932,5.05Z" transform="translate(-360.337 -426.268)" fill="#767d9f"/>
  <path id="Tracé_97" data-name="Tracé 97" d="M636.316,419.993l-1.074,8.266-.414,3.182-4.825.673s-.522-1.118-1.259-2.835c-2.239-5.212-6.454-15.959-4.01-17.814,3.249-2.471,4.04,5.724,4.04,5.724l3.7-1.8Z" transform="translate(-433.404 -296.432)" fill="#ae6e79"/>
  <rect id="Rectangle_91" data-name="Rectangle 91" width="24.366" height="36.81" transform="translate(177.741 138.938)" fill="#fff"/>
  <rect id="Rectangle_92" data-name="Rectangle 92" width="24.366" height="36.81" transform="translate(177.741 138.938)" opacity="0.1"/>
  <rect id="Rectangle_93" data-name="Rectangle 93" width="24.366" height="36.81" transform="translate(188.955 137.369) rotate(8.41)" fill="#fff"/>
  <rect id="Rectangle_94" data-name="Rectangle 94" width="12.542" height="18.945" transform="translate(191.224 140.841) rotate(8.41)" fill="#6c63ff"/>
  <rect id="Rectangle_95" data-name="Rectangle 95" width="15.195" height="4.114" transform="translate(187.122 164.917) rotate(8.41)" fill="#6c63ff"/>
  <circle id="Ellipse_33" data-name="Ellipse 33" cx="14.084" cy="14.084" r="14.084" transform="translate(194.411 17.898)" opacity="0.1"/>
  <circle id="Ellipse_34" data-name="Ellipse 34" cx="14.084" cy="14.084" r="14.084" transform="translate(194.411 17.562)" fill="#ae6e79"/>
  <path id="Tracé_98" data-name="Tracé 98" d="M626.9,127.257a1.6,1.6,0,0,1,.1-1.088c.535-1.114,2.061-1.212,3.3-1.155,2.906.135,6.094.152,8.367-1.683.943-.754,2-2.65,3.367-2.289,1.219.32,1.727,1.973,3,2.34a6.149,6.149,0,0,0,2.808-.337,20.28,20.28,0,0,1,4.094-.034,5.037,5.037,0,0,0,3.784-1.249c1.259-1.347,1.054-3.451.943-5.3a28.513,28.513,0,0,1,.481-7.118c.458-2.33,1.162-4.936-.125-6.932-1.226-1.9-3.764-2.424-5.5-3.882-1.623-1.347-2.481-3.5-4.2-4.754-2.158-1.572-5.091-1.347-7.744-1.074l-5.757.613a8.6,8.6,0,0,0-4.252,1.222c-2.205,1.6-2.508,4.912-4.6,6.66a18.706,18.706,0,0,1-3.178,1.737,3.817,3.817,0,0,0-2.205,2.694,8.286,8.286,0,0,0,.711,2.916c.63,2.323-.354,4.714-.983,7.054s-.751,5.182,1.077,6.734c.37.316.8.559,1.162.889,1.236,1.128,1.4,3.03,1.118,4.673" transform="translate(-430.021 -85.175)" fill="#444053"/>
  <ellipse id="Ellipse_35" data-name="Ellipse 35" cx="0.337" cy="0.842" rx="0.337" ry="0.842" transform="translate(209.306 47.554)" fill="#444053"/>
  <ellipse id="Ellipse_36" data-name="Ellipse 36" cx="0.337" cy="0.842" rx="0.337" ry="0.842" transform="translate(209.306 51.062)" fill="#444053"/>
  <path id="Tracé_99" data-name="Tracé 99" d="M651.946,429.225a6.167,6.167,0,0,0,.737-2.882l-4.013-5S650.37,431.04,651.946,429.225Z" transform="translate(-449.771 -303.29)" fill="#ae6e79"/>
  <path id="Tracé_100" data-name="Tracé 100" d="M562.363,646.045s-6.586,10.182-27.161,9.091c-19.383-1.01-28.844-10.548-28.393-13.915s-1.236-11.562,2.916-13.919c2.407-1.364,5.576-.555,7.811.367a4.411,4.411,0,0,0,4.636-.832c2.044-1.842,5.855-3.916,11.872-2.283a4.277,4.277,0,0,0,2.357-.044c2.5-.764,8.468-2.091,12.794.855a4.377,4.377,0,0,0,4.687.178l.061-.037c2.02-1.236,11.447,10.437,11.447,10.437S565.841,644.924,562.363,646.045Z" transform="translate(-355.663 -437.413)" opacity="0.1"/>
  <path id="Tracé_101" data-name="Tracé 101" d="M562.363,647.045s-6.586,10.182-27.161,9.091c-19.383-1.01-28.844-10.548-28.393-13.915s-1.236-11.562,2.916-13.919c2.407-1.364,5.576-.555,7.811.367a4.411,4.411,0,0,0,4.636-.832c2.044-1.842,5.855-3.916,11.872-2.283a4.277,4.277,0,0,0,2.357-.044c2.5-.764,8.468-2.091,12.794.855a4.377,4.377,0,0,0,4.687.178l.061-.037c2.02-1.236,11.447,10.437,11.447,10.437S565.841,645.924,562.363,647.045Z" transform="translate(-355.663 -438.076)" fill="#767d9f"/>
  <circle id="Ellipse_37" data-name="Ellipse 37" cx="13.414" cy="13.414" r="13.414" transform="translate(166.125 186.128)" opacity="0.1"/>
  <circle id="Ellipse_38" data-name="Ellipse 38" cx="13.414" cy="13.414" r="13.414" transform="translate(166.125 186.465)" fill="#ae6e79"/>
  <path id="Tracé_102" data-name="Tracé 102" d="M557.954,629.314a5.591,5.591,0,0,0-3.481,2.3,9.292,9.292,0,0,1-1.158,2.185c-.849.852-2.279.869-3.427,1.347s-1.906,2.161-.781,2.694a2.507,2.507,0,0,0-2.185,2.215,6.589,6.589,0,0,0,.657,3.168c1.286,3.313,2.67,6.771,5.5,9.128,4.619,3.845,11.582,3.667,17.787,3.259a2.91,2.91,0,0,0,1.458-.337,2.7,2.7,0,0,0,.869-2.044c.468-3.192,2.2-6.091,3.33-9.138s1.6-6.626-.31-9.323C573.412,630.772,562.675,628.034,557.954,629.314Z" transform="translate(-382.26 -441.031)"/>
  <path id="Tracé_103" data-name="Tracé 103" d="M644.6,461.9l-.414,3.182-4.825.673s-.522-1.118-1.259-2.835l6.421-1.205Z" transform="translate(-442.76 -330.068)" opacity="0.1"/>
  <path id="Tracé_104" data-name="Tracé 104" d="M648,532.856l2.808-3.256-.562-17.956a29.132,29.132,0,0,0,.562-3.929c.111-1.909-1.4-6.172-1.4-6.172a13.359,13.359,0,0,1,.953-2.471c.673-1.347-.95-4.377-.95-4.377s-2.417-7.855-1.407-11.784-.246-6.172-.246-6.172a34.24,34.24,0,0,1-.875-6.171c.111-1.795-2.246-3.481-2.246-3.481l-1.795-4.377-7.182,1.347v15.151s.448,14.478,0,17.286a10.266,10.266,0,0,0,.9,5.5s-.784,4.151-.111,5.724,2.02,5.387,2.02,5.387a8.753,8.753,0,0,0,.226,4.094,3.84,3.84,0,0,1,0,3.087Z" transform="translate(-441.081 -330.731)" fill="#767d9f"/>
  <g id="Groupe_101" data-name="Groupe 101" transform="translate(188.887 19.484)" opacity="0.1">
    <path id="Tracé_105" data-name="Tracé 105" d="M731.5,132.172a28.5,28.5,0,0,0-.508,5.983,28.635,28.635,0,0,1,.522-4.97,19.221,19.221,0,0,0,.593-4.6,27.938,27.938,0,0,1-.606,3.582Z" transform="translate(-693.256 -128.59)"/>
    <path id="Tracé_106" data-name="Tracé 106" d="M621.589,172.119c-.36-.337-.791-.572-1.162-.892a4.621,4.621,0,0,1-1.478-3.367,5.149,5.149,0,0,0,1.478,4.377c.37.32.8.562,1.162.892a4.114,4.114,0,0,1,1.219,2.811A4.623,4.623,0,0,0,621.589,172.119Z" transform="translate(-618.934 -154.638)"/>
    <path id="Tracé_107" data-name="Tracé 107" d="M621.849,134.766a6.345,6.345,0,0,0-.182-2.118c-.2-.721-.545-1.424-.673-2.148a2.229,2.229,0,0,1-.037.242,8.434,8.434,0,0,0,.71,2.916A5.721,5.721,0,0,1,621.849,134.766Z" transform="translate(-620.268 -129.857)"/>
    <path id="Tracé_108" data-name="Tracé 108" d="M663.209,170.263a5,5,0,0,1-3.784,1.249,20.033,20.033,0,0,0-4.094.037,5.93,5.93,0,0,1-2.808.337c-1.269-.367-1.778-2.02-2.993-2.34-1.384-.364-2.438,1.532-3.367,2.286-2.273,1.818-5.461,1.8-8.367,1.683-1.236-.057-2.761.04-3.293,1.158a1.562,1.562,0,0,0-.1,1.088l-4.114.646a8,8,0,0,1-.111,1.01l4.225-.673a1.562,1.562,0,0,1,.1-1.088c.532-1.118,2.057-1.215,3.293-1.158,2.906.135,6.094.152,8.367-1.683.943-.754,2-2.65,3.367-2.286,1.215.316,1.724,1.973,2.993,2.34a6.2,6.2,0,0,0,2.808-.337,20.036,20.036,0,0,1,4.094-.037,5.037,5.037,0,0,0,3.784-1.249,5.355,5.355,0,0,0,1.01-3.946A4.394,4.394,0,0,1,663.209,170.263Z" transform="translate(-626.393 -154.267)"/>
  </g>
  <g id="Groupe_102" data-name="Groupe 102" transform="translate(191.667 48.577)" opacity="0.1">
    <path id="Tracé_109" data-name="Tracé 109" d="M630.059,219.858a6.812,6.812,0,0,0-1.242-.505,3.215,3.215,0,0,1-1.626-1.663,3.6,3.6,0,0,0,1.963,2.673,6.806,6.806,0,0,1,1.242.505,1.866,1.866,0,0,1,.6.7A2.6,2.6,0,0,0,630.059,219.858Z" transform="translate(-627.19 -216.784)"/>
    <path id="Tracé_110" data-name="Tracé 110" d="M644.061,247.047c-1.552.394-3.579.6-4.431-.717a2.311,2.311,0,0,0,.269.906c.727,1.3,2.5,1.252,4.017.933Z" transform="translate(-635.442 -235.782)"/>
    <path id="Tracé_111" data-name="Tracé 111" d="M658.512,251.2a3.612,3.612,0,0,1-1.852,3.448,8.8,8.8,0,0,1-4,1.01,1.374,1.374,0,0,1-.653-.074.8.8,0,0,0,.99,1.084,8.579,8.579,0,0,0,4-1.01,3.6,3.6,0,0,0,1.848-3.461A3.817,3.817,0,0,0,658.512,251.2Z" transform="translate(-643.604 -239.012)"/>
    <path id="Tracé_112" data-name="Tracé 112" d="M669.607,215a5.542,5.542,0,0,1-1.01,4.764c-.795.963-2,1.734-2.175,2.97a2.805,2.805,0,0,0,.337,1.64,2.187,2.187,0,0,1,0-.63c.172-1.236,1.38-2.02,2.175-2.97A5.664,5.664,0,0,0,669.607,215Z" transform="translate(-653.204 -215)"/>
  </g>
  <g id="Groupe_103" data-name="Groupe 103" transform="translate(164.63 187.817)" opacity="0.1">
    <path id="Tracé_113" data-name="Tracé 113" d="M553.183,635.375c1.145-.475,2.576-.492,3.427-1.347a9.336,9.336,0,0,0,1.158-2.182,5.534,5.534,0,0,1,3.478-2.3c4.714-1.279,15.461,1.454,18.262,5.417a7.357,7.357,0,0,1,1.286,4.067,7.6,7.6,0,0,0-1.283-4.737c-2.8-3.963-13.538-6.7-18.262-5.417a5.561,5.561,0,0,0-3.478,2.3,9.331,9.331,0,0,1-1.158,2.182c-.852.852-2.283.869-3.428,1.347a2.034,2.034,0,0,0-1.283,2.138A2.316,2.316,0,0,1,553.183,635.375Z" transform="translate(-550.183 -628.555)"/>
    <path id="Tracé_114" data-name="Tracé 114" d="M546.926,657.841a2.5,2.5,0,0,1,2.185-2.215.9.9,0,0,1-.515-.576,2.616,2.616,0,0,0-1.683,2.118,3.561,3.561,0,0,0,0,.825A.576.576,0,0,0,546.926,657.841Z" transform="translate(-546.889 -646.129)"/>
  </g>
  <rect id="Rectangle_96" data-name="Rectangle 96" width="30.639" height="39.955" transform="translate(205.35 77.516)" fill="#fff"/>
  <rect id="Rectangle_97" data-name="Rectangle 97" width="30.639" height="39.955" transform="translate(205.35 77.516)" opacity="0.1"/>
  <rect id="Rectangle_98" data-name="Rectangle 98" width="30.639" height="39.955" transform="translate(217.5 85.054) rotate(-9.76)" fill="#fff"/>
  <rect id="Rectangle_99" data-name="Rectangle 99" width="7.198" height="9.387" transform="translate(224.818 111.898) rotate(-9.76)" fill="#6c63ff"/>
  <rect id="Rectangle_100" data-name="Rectangle 100" width="7.198" height="9.387" transform="translate(234.635 110.207) rotate(-9.76)" fill="#6c63ff"/>
  <rect id="Rectangle_101" data-name="Rectangle 101" width="25.243" height="9.429" transform="translate(223.787 99.705) rotate(-9.744)" fill="#6c63ff"/>
  <rect id="Rectangle_102" data-name="Rectangle 102" width="25.243" height="2.104" transform="translate(221.713 88.613) rotate(-9.744)" fill="#6c63ff"/>
  <rect id="Rectangle_103" data-name="Rectangle 103" width="25.243" height="2.104" transform="translate(222.529 92.427) rotate(-9.744)" fill="#6c63ff"/>
  <path id="Tracé_115" data-name="Tracé 115" d="M701.271,268.71s-14.084,14.141-7.013,17.733,11.673-11.952,11.673-11.952l1.118-3.535Z" transform="translate(-478.693 -202.049)" fill="#ae6e79"/>
  <path id="Tracé_116" data-name="Tracé 116" d="M711.911,260.994l-1.741,3.845s8.586,1.205,10.38,3.8l-1.064-6.784-1.263-2.9Z" transform="translate(-490.565 -195.582)" opacity="0.1"/>
  <path id="Tracé_117" data-name="Tracé 117" d="M712.911,259.994l-1.741,3.845s8.586,1.205,10.38,3.8l-1.064-6.784-1.263-2.9Z" transform="translate(-491.228 -194.918)" fill="#4c4981"/>
  <path id="Tracé_118" data-name="Tracé 118" d="M812.415,403.26l-.185.128.256.115.276-.024.034-.192Z" transform="translate(-538.761 -267.49)" fill="#464a5f"/>
  <path id="Tracé_119" data-name="Tracé 119" d="M812.415,403.26l-.185.128.256.115.276-.024.034-.192Z" transform="translate(-538.761 -267.49)" opacity="0.1"/>
  <path id="Tracé_120" data-name="Tracé 120" d="M812.117,402.8l-.189.121-.148-.182.091-.148.084-.027Z" transform="translate(-538.463 -267.026)" fill="#9c9ca1"/>
  <path id="Tracé_121" data-name="Tracé 121" d="M812.117,402.8l-.189.121-.148-.182.091-.148.084-.027Z" transform="translate(-538.463 -267.026)" opacity="0.1"/>
  <path id="Tracé_122" data-name="Tracé 122" d="M875.535,364.237l-13.784-19.908a1.64,1.64,0,0,0-2.283-.421L828.742,365a1.646,1.646,0,0,0-.428,2.286l13.747,20.161Z" transform="translate(-568.741 -251.736)" fill="#9c9ca1"/>
  <path id="Tracé_123" data-name="Tracé 123" d="M875.535,364.237l-13.784-19.908a1.64,1.64,0,0,0-2.283-.421L828.742,365a1.646,1.646,0,0,0-.428,2.286l13.747,20.161Z" transform="translate(-568.741 -251.736)" opacity="0.1"/>
  <path id="Tracé_124" data-name="Tracé 124" d="M876.533,364.377l-13.784-19.908a1.643,1.643,0,0,0-2.286-.421l-30.723,21.1a1.65,1.65,0,0,0-.431,2.286l13.747,20.171Z" transform="translate(-569.402 -251.829)" fill="#9c9ca1"/>
  <path id="Tracé_125" data-name="Tracé 125" d="M915.838,409.447,904.39,405.77l-33.48,23.208,11.629,3.8a1.761,1.761,0,0,0,1.559-.236l31.834-22.477a.337.337,0,0,0-.094-.623Z" transform="translate(-597.185 -292.963)" fill="#464a5f"/>
  <path id="Tracé_126" data-name="Tracé 126" d="M915.838,409.447,904.39,405.77l-33.48,23.208,11.629,3.8a1.761,1.761,0,0,0,1.559-.236l31.834-22.477a.337.337,0,0,0-.094-.623Z" transform="translate(-597.185 -292.963)" opacity="0.1"/>
  <path id="Tracé_127" data-name="Tracé 127" d="M915.628,408.75l-11.447-3.68L870.7,428.278l11.629,3.8a1.748,1.748,0,0,0,1.559-.232l31.834-22.477a.337.337,0,0,0-.094-.616Z" transform="translate(-597.046 -292.498)" fill="#464a5f"/>
  <g id="Groupe_104" data-name="Groupe 104" transform="translate(268.542 103.32)" opacity="0.1">
    <path id="Tracé_128" data-name="Tracé 128" d="M948.748,399.7l-.845-1.212a.336.336,0,0,0-.458-.084l-1.256.838a.337.337,0,0,0-.091.455l.778,1.2a.337.337,0,0,0,.454.1l1.323-.832A.337.337,0,0,0,948.748,399.7Z" transform="translate(-915.566 -391.357)"/>
    <path id="Tracé_129" data-name="Tracé 129" d="M942.043,404.344l-.848-1.209a.337.337,0,0,0-.458-.084l-1.253.845a.337.337,0,0,0-.094.454l.778,1.2a.337.337,0,0,0,.455.1l1.327-.832a.337.337,0,0,0,.094-.471Z" transform="translate(-911.117 -394.442)"/>
    <path id="Tracé_130" data-name="Tracé 130" d="M935,409.214l-.848-1.209a.337.337,0,0,0-.458-.084l-1.256.845a.337.337,0,0,0-.091.458l.778,1.2a.337.337,0,0,0,.455.1l1.323-.832a.337.337,0,0,0,.1-.471Z" transform="translate(-906.442 -397.672)"/>
    <path id="Tracé_131" data-name="Tracé 131" d="M927.878,414.15l-.849-1.212a.337.337,0,0,0-.455-.084l-1.256.848a.337.337,0,0,0-.091.455l.778,1.2a.337.337,0,0,0,.451.1l1.326-.835a.337.337,0,0,0,.094-.468Z" transform="translate(-901.722 -400.945)"/>
    <path id="Tracé_132" data-name="Tracé 132" d="M920.753,419.084l-.848-1.209a.337.337,0,0,0-.458-.084l-1.252.845a.337.337,0,0,0-.094.454l.778,1.2a.337.337,0,0,0,.455.1l1.327-.835a.336.336,0,0,0,.094-.468Z" transform="translate(-896.995 -404.219)"/>
    <path id="Tracé_133" data-name="Tracé 133" d="M913.6,424.029l-1.054-1.5a.151.151,0,0,0-.212-.04l-1.542,1.04a.152.152,0,0,0-.044.212l.966,1.485a.155.155,0,0,0,.212.047l1.63-1.01a.155.155,0,0,0,.044-.232Z" transform="translate(-892.136 -407.353)"/>
    <path id="Tracé_134" data-name="Tracé 134" d="M906.468,428.959l-1.061-1.5a.155.155,0,0,0-.216-.04l-1.542,1.04a.155.155,0,0,0-.041.212l.966,1.485a.148.148,0,0,0,.212.047l1.626-1.01a.152.152,0,0,0,.054-.232Z" transform="translate(-887.4 -410.622)"/>
    <path id="Tracé_135" data-name="Tracé 135" d="M900.173,433.363l-1.054-1.488a.155.155,0,0,0-.212-.037l-1.542,1.037a.158.158,0,0,0-.044.215l.966,1.485a.158.158,0,0,0,.212.047l1.63-1.01a.155.155,0,0,0,.044-.249Z" transform="translate(-883.229 -413.555)"/>
    <path id="Tracé_136" data-name="Tracé 136" d="M893.11,438.216l-1.054-1.5a.155.155,0,0,0-.212-.037l-1.542,1.037a.155.155,0,0,0-.044.215l.966,1.485a.158.158,0,0,0,.212.047l1.629-1.01a.158.158,0,0,0,.044-.236Z" transform="translate(-878.544 -416.766)"/>
    <path id="Tracé_137" data-name="Tracé 137" d="M886.271,442.909l-1.054-1.5a.152.152,0,0,0-.212-.04l-1.542,1.04a.152.152,0,0,0-.044.212l.966,1.485a.155.155,0,0,0,.212.047l1.63-1.01a.155.155,0,0,0,.044-.232Z" transform="translate(-874.007 -419.876)"/>
    <path id="Tracé_138" data-name="Tracé 138" d="M879.45,447.689l-1.044-1.505a.155.155,0,0,0-.212-.037l-1.542,1.037a.155.155,0,0,0-.044.215l.966,1.485a.158.158,0,0,0,.212.047l1.63-1.01a.155.155,0,0,0,.034-.232Z" transform="translate(-869.49 -423.047)"/>
    <path id="Tracé_139" data-name="Tracé 139" d="M872.591,452.419l-1.054-1.5a.151.151,0,0,0-.212-.04l-1.542,1.034a.152.152,0,0,0-.044.212l.966,1.485a.155.155,0,0,0,.212.047l1.63-1.01a.155.155,0,0,0,.044-.226Z" transform="translate(-864.933 -426.184)"/>
    <path id="Tracé_140" data-name="Tracé 140" d="M944.263,393.187l-.848-1.212a.337.337,0,0,0-.458-.084l-1.242.848a.337.337,0,0,0-.094.455l.778,1.2a.337.337,0,0,0,.454.1l1.326-.832A.337.337,0,0,0,944.263,393.187Z" transform="translate(-912.596 -387.039)"/>
    <path id="Tracé_141" data-name="Tracé 141" d="M934.393,378.947l-.849-1.219a.337.337,0,0,0-.455-.084l-1.256.845a.337.337,0,0,0-.094.455l.778,1.2a.337.337,0,0,0,.455.1l1.326-.832A.337.337,0,0,0,934.393,378.947Z" transform="translate(-906.043 -377.59)"/>
    <path id="Tracé_142" data-name="Tracé 142" d="M937.538,397.837l-.849-1.209a.337.337,0,0,0-.455-.084l-1.256.845a.337.337,0,0,0-.091.455l.774,1.2a.337.337,0,0,0,.454.1l1.327-.832a.337.337,0,0,0,.094-.471Z" transform="translate(-908.13 -390.126)"/>
    <path id="Tracé_143" data-name="Tracé 143" d="M930.49,402.7l-.848-1.209a.337.337,0,0,0-.458-.084l-1.253.835a.336.336,0,0,0-.094.458l.778,1.2a.337.337,0,0,0,.455.1l1.327-.832A.337.337,0,0,0,930.49,402.7Z" transform="translate(-903.453 -393.354)"/>
    <path id="Tracé_144" data-name="Tracé 144" d="M923.368,407.637l-.845-1.212a.337.337,0,0,0-.458-.084l-1.256.859a.337.337,0,0,0-.091.455l.778,1.2a.337.337,0,0,0,.455.1l1.323-.832a.337.337,0,0,0,.094-.478Z" transform="translate(-898.731 -396.624)"/>
    <path id="Tracé_145" data-name="Tracé 145" d="M927.843,383.837l-.848-1.209a.337.337,0,0,0-.454-.084l-1.256.845a.337.337,0,0,0-.094.455l.778,1.2a.337.337,0,0,0,.454.1l1.326-.832a.337.337,0,0,0,.094-.471Z" transform="translate(-901.698 -380.84)"/>
    <path id="Tracé_146" data-name="Tracé 146" d="M920.8,388.707l-.848-1.212a.337.337,0,0,0-.458-.084l-1.252.835a.337.337,0,0,0-.094.455l.778,1.2a.337.337,0,0,0,.455.1l1.327-.832A.337.337,0,0,0,920.8,388.707Z" transform="translate(-897.028 -384.068)"/>
    <path id="Tracé_147" data-name="Tracé 147" d="M913.678,393.642l-.848-1.209a.337.337,0,0,0-.455-.088l-1.256.859a.337.337,0,0,0-.091.455l.778,1.2a.337.337,0,0,0,.455.1l1.323-.835a.337.337,0,0,0,.094-.478Z" transform="translate(-892.303 -387.343)"/>
    <path id="Tracé_148" data-name="Tracé 148" d="M916.268,412.572l-.848-1.209a.337.337,0,0,0-.455-.088l-1.246.848a.337.337,0,0,0-.091.455l.764,1.2a.337.337,0,0,0,.451.1l1.327-.835a.337.337,0,0,0,.1-.468Z" transform="translate(-894.028 -399.899)"/>
    <path id="Tracé_149" data-name="Tracé 149" d="M909.123,417.5l-.849-1.209a.337.337,0,0,0-.458-.084l-1.253.845a.337.337,0,0,0-.094.455l.778,1.2a.337.337,0,0,0,.454.1l1.327-.832a.337.337,0,0,0,.094-.471Z" transform="translate(-889.281 -403.171)"/>
    <path id="Tracé_150" data-name="Tracé 150" d="M901.971,422.449l-1.054-1.5a.152.152,0,0,0-.212-.04l-1.542,1.04a.152.152,0,0,0-.044.212l.966,1.485a.152.152,0,0,0,.212.047l1.63-1.01a.155.155,0,0,0,.044-.232Z" transform="translate(-884.421 -406.305)"/>
    <path id="Tracé_151" data-name="Tracé 151" d="M895.669,426.819l-1.054-1.5a.155.155,0,0,0-.212-.037l-1.539,1.037a.158.158,0,0,0-.044.215l.966,1.485a.158.158,0,0,0,.212.047l1.63-1.01a.148.148,0,0,0,.04-.232Z" transform="translate(-880.244 -409.204)"/>
    <path id="Tracé_152" data-name="Tracé 152" d="M888.6,431.706l-1.054-1.5a.155.155,0,0,0-.212-.037l-1.542,1.037a.152.152,0,0,0-.044.212l.966,1.488a.158.158,0,0,0,.212.047l1.63-1.01a.158.158,0,0,0,.044-.236Z" transform="translate(-875.553 -412.447)"/>
    <path id="Tracé_153" data-name="Tracé 153" d="M881.761,436.439l-1.054-1.5a.152.152,0,0,0-.212-.04l-1.542,1.027a.151.151,0,0,0-.044.212l.966,1.485a.155.155,0,0,0,.212.047l1.63-1.01a.155.155,0,0,0,.044-.219Z" transform="translate(-871.016 -415.585)"/>
    <path id="Tracé_154" data-name="Tracé 154" d="M925.808,395.937l-.848-1.209a.337.337,0,0,0-.455-.084l-1.256.848a.337.337,0,0,0-.091.455l.778,1.2a.337.337,0,0,0,.451.1l1.327-.832a.337.337,0,0,0,.094-.471Z" transform="translate(-900.349 -388.866)"/>
    <path id="Tracé_155" data-name="Tracé 155" d="M918.673,400.867l-.849-1.212a.337.337,0,0,0-.458-.084l-1.252.848a.337.337,0,0,0-.094.455l.778,1.2a.337.337,0,0,0,.455.1l1.327-.835a.337.337,0,0,0,.094-.468Z" transform="translate(-895.615 -392.133)"/>
    <path id="Tracé_156" data-name="Tracé 156" d="M911.561,405.8l-.848-1.209a.337.337,0,0,0-.458-.084l-1.256.845a.337.337,0,0,0-.091.455l.778,1.2a.337.337,0,0,0,.454.1l1.323-.835a.337.337,0,0,0,.1-.468Z" transform="translate(-890.897 -395.41)"/>
    <path id="Tracé_157" data-name="Tracé 157" d="M904.438,410.737l-.848-1.209a.337.337,0,0,0-.454-.084l-1.256.845a.337.337,0,0,0-.091.455l.778,1.209a.337.337,0,0,0,.451.1l1.327-.832a.337.337,0,0,0,.094-.485Z" transform="translate(-886.174 -398.683)"/>
    <path id="Tracé_158" data-name="Tracé 158" d="M897.333,415.679l-1.054-1.5a.152.152,0,0,0-.212-.04l-1.542,1.04a.155.155,0,0,0-.044.212l.966,1.488a.152.152,0,0,0,.212.044l1.63-1.01a.155.155,0,0,0,.044-.232Z" transform="translate(-881.346 -401.814)"/>
    <path id="Tracé_159" data-name="Tracé 159" d="M890.983,420.049l-1.054-1.5a.158.158,0,0,0-.216-.037l-1.539,1.037a.158.158,0,0,0-.044.215l.966,1.485a.155.155,0,0,0,.212.047l1.63-1.01a.155.155,0,0,0,.044-.232Z" transform="translate(-877.133 -404.713)"/>
    <path id="Tracé_160" data-name="Tracé 160" d="M883.918,424.909l-1.054-1.505a.158.158,0,0,0-.216-.037l-1.542,1.037a.162.162,0,0,0-.044.215l.97,1.485a.155.155,0,0,0,.212.047l1.626-1.01a.152.152,0,0,0,.047-.232Z" transform="translate(-872.446 -407.936)"/>
    <path id="Tracé_161" data-name="Tracé 161" d="M877.081,429.669l-1.054-1.5a.155.155,0,0,0-.215-.04l-1.542,1.04a.155.155,0,0,0-.04.212l.966,1.485a.148.148,0,0,0,.212.047l1.626-1.01a.151.151,0,0,0,.047-.232Z" transform="translate(-867.912 -411.093)"/>
    <path id="Tracé_162" data-name="Tracé 162" d="M874.921,441.176l-1.054-1.5a.155.155,0,0,0-.212-.037l-1.542,1.037a.152.152,0,0,0-.044.212l.966,1.488a.158.158,0,0,0,.212.047l1.63-1.01a.158.158,0,0,0,.044-.236Z" transform="translate(-866.479 -418.729)"/>
    <path id="Tracé_163" data-name="Tracé 163" d="M868.081,445.909l-1.054-1.5a.151.151,0,0,0-.212-.04l-1.542,1.04a.151.151,0,0,0-.044.212l.966,1.485a.155.155,0,0,0,.212.047l1.63-1.01a.155.155,0,0,0,.044-.232Z" transform="translate(-861.942 -421.866)"/>
    <path id="Tracé_164" data-name="Tracé 164" d="M878.889,417.7l-1.01-1.414a.209.209,0,0,0-.286-.051l-1.454.98a.206.206,0,0,0-.057.286l.909,1.4a.2.2,0,0,0,.283.064l1.539-.966a.209.209,0,0,0,.077-.3Z" transform="translate(-869.134 -403.203)"/>
    <path id="Tracé_165" data-name="Tracé 165" d="M872.083,422.437l-.993-1.414a.205.205,0,0,0-.286-.054l-1.454,1a.2.2,0,0,0-.057.283l.909,1.4a.209.209,0,0,0,.283.064l1.539-.966a.209.209,0,0,0,.061-.31Z" transform="translate(-864.63 -406.34)"/>
    <path id="Tracé_166" data-name="Tracé 166" d="M865.242,427.177l-.993-1.418a.209.209,0,0,0-.286-.05l-1.454.98a.205.205,0,0,0-.057.286l.909,1.4a.2.2,0,0,0,.283.064l1.539-.966a.205.205,0,0,0,.061-.293Z" transform="translate(-860.093 -409.484)"/>
    <path id="Tracé_167" data-name="Tracé 167" d="M858.393,431.909l-1.054-1.505a.155.155,0,0,0-.212-.037l-1.542,1.037a.158.158,0,0,0-.044.215l.966,1.485a.158.158,0,0,0,.212.047l1.63-1.01a.148.148,0,0,0,.044-.232Z" transform="translate(-855.516 -412.58)"/>
    <path id="Tracé_168" data-name="Tracé 168" d="M935.009,386.026l-.912-1.3a.337.337,0,0,0-.458-.081l-3.562,2.495a.337.337,0,0,0-.088.451l.859,1.327a.337.337,0,0,0,.468.091l3.616-2.529A.337.337,0,0,0,935.009,386.026Z" transform="translate(-904.881 -382.235)"/>
    <path id="Tracé_169" data-name="Tracé 169" d="M865.559,434.108l-1.118-1.579a.151.151,0,0,0-.215-.037l-3.845,2.694a.151.151,0,0,0-.04.209l1.05,1.626a.155.155,0,0,0,.219.044l3.909-2.737A.158.158,0,0,0,865.559,434.108Z" transform="translate(-858.699 -413.987)"/>
    <path id="Tracé_170" data-name="Tracé 170" d="M892.816,398.378l-1.03-1.508a.155.155,0,0,0-.212-.04l-8.538,5.764a.155.155,0,0,0-.044.212l1.054,1.616a.155.155,0,0,0,.219.044l8.511-5.872a.155.155,0,0,0,.04-.216Z" transform="translate(-873.725 -390.335)"/>
  </g>
  <path id="Tracé_171" data-name="Tracé 171" d="M949.413,399.817l-.848-1.212a.337.337,0,0,0-.458-.084l-1.253.848a.337.337,0,0,0-.094.455l.778,1.2a.337.337,0,0,0,.455.1l1.327-.835a.337.337,0,0,0,.094-.468Z" transform="translate(-647.464 -288.117)" fill="#464a5f"/>
  <path id="Tracé_172" data-name="Tracé 172" d="M942.673,404.467l-.849-1.209a.337.337,0,0,0-.454-.084l-1.256.845a.337.337,0,0,0-.094.455l.778,1.2a.337.337,0,0,0,.455.1l1.326-.832a.337.337,0,0,0,.094-.471Z" transform="translate(-642.993 -291.205)" fill="#464a5f"/>
  <path id="Tracé_173" data-name="Tracé 173" d="M935.673,409.344l-.848-1.209a.337.337,0,0,0-.458-.084l-1.253.848a.337.337,0,0,0-.094.455l.778,1.2a.337.337,0,0,0,.455.1l1.327-.832a.337.337,0,0,0,.094-.471Z" transform="translate(-638.35 -294.439)" fill="#464a5f"/>
  <path id="Tracé_174" data-name="Tracé 174" d="M928.527,414.27l-.848-1.212a.337.337,0,0,0-.455-.084l-1.256.848a.337.337,0,0,0-.087.471l.778,1.2a.337.337,0,0,0,.454.1l1.323-.835a.337.337,0,0,0,.091-.485Z" transform="translate(-633.608 -297.705)" fill="#464a5f"/>
  <path id="Tracé_175" data-name="Tracé 175" d="M921.418,419.207,920.569,418a.337.337,0,0,0-.454-.084l-1.256.845a.337.337,0,0,0-.091.455l.774,1.2a.337.337,0,0,0,.454.1l1.327-.835a.337.337,0,0,0,.094-.468Z" transform="translate(-628.896 -300.982)" fill="#464a5f"/>
  <path id="Tracé_176" data-name="Tracé 176" d="M914.261,424.149l-1.054-1.5a.151.151,0,0,0-.212-.04l-1.542,1.04a.151.151,0,0,0-.044.212l.966,1.485a.155.155,0,0,0,.212.047l1.63-1.01a.155.155,0,0,0,.044-.232Z" transform="translate(-624.032 -304.113)" fill="#464a5f"/>
  <path id="Tracé_177" data-name="Tracé 177" d="M907.141,429.079l-1.054-1.5a.155.155,0,0,0-.215-.04l-1.539,1.04a.151.151,0,0,0-.044.212l.966,1.488a.152.152,0,0,0,.212.044l1.63-1.01a.158.158,0,0,0,.044-.232Z" transform="translate(-619.309 -307.383)" fill="#464a5f"/>
  <path id="Tracé_178" data-name="Tracé 178" d="M900.833,433.449l-1.054-1.505a.155.155,0,0,0-.212-.037l-1.542,1.024a.158.158,0,0,0-.044.215l.966,1.485a.158.158,0,0,0,.212.047l1.63-1.01a.155.155,0,0,0,.044-.219Z" transform="translate(-615.126 -310.282)" fill="#464a5f"/>
  <path id="Tracé_179" data-name="Tracé 179" d="M893.77,438.366l-1.054-1.492a.155.155,0,0,0-.212-.037l-1.542,1.037a.155.155,0,0,0-.044.216l.966,1.485a.158.158,0,0,0,.212.047l1.63-1.01a.155.155,0,0,0,.044-.246Z" transform="translate(-610.44 -313.552)" fill="#464a5f"/>
  <path id="Tracé_180" data-name="Tracé 180" d="M886.931,443.069l-1.054-1.5a.152.152,0,0,0-.212-.04l-1.542,1.04a.152.152,0,0,0-.044.212l.966,1.485a.152.152,0,0,0,.212.047l1.63-1.01a.155.155,0,0,0,.044-.232Z" transform="translate(-605.904 -316.663)" fill="#464a5f"/>
  <path id="Tracé_181" data-name="Tracé 181" d="M880.093,447.809l-1.054-1.5a.155.155,0,0,0-.212-.037l-1.542,1.037a.158.158,0,0,0-.044.215l.966,1.485a.158.158,0,0,0,.212.047l1.63-1.01a.155.155,0,0,0,.044-.232Z" transform="translate(-601.368 -319.807)" fill="#464a5f"/>
  <path id="Tracé_182" data-name="Tracé 182" d="M873.251,452.539l-1.054-1.5a.152.152,0,0,0-.212-.04l-1.542,1.04a.152.152,0,0,0-.044.212l.966,1.485a.151.151,0,0,0,.212.047l1.63-1.01a.155.155,0,0,0,.044-.232Z" transform="translate(-596.83 -322.944)" fill="#464a5f"/>
  <path id="Tracé_183" data-name="Tracé 183" d="M944.908,393.34l-.849-1.212a.337.337,0,0,0-.455-.084l-1.256.848a.337.337,0,0,0-.091.455l.774,1.2a.337.337,0,0,0,.455.1l1.327-.835a.337.337,0,0,0,.094-.468Z" transform="translate(-644.477 -283.822)" fill="#464a5f"/>
  <path id="Tracé_184" data-name="Tracé 184" d="M935.058,379.087l-.848-1.209a.337.337,0,0,0-.455-.084l-1.256.845a.337.337,0,0,0-.091.455l.778,1.2a.337.337,0,0,0,.451.1l1.327-.832a.337.337,0,0,0,.094-.471Z" transform="translate(-637.943 -274.37)" fill="#464a5f"/>
  <path id="Tracé_185" data-name="Tracé 185" d="M938.2,397.943l-.848-1.215a.337.337,0,0,0-.454-.084l-1.256.845a.337.337,0,0,0-.091.454l.778,1.2a.337.337,0,0,0,.451.1l1.327-.832A.337.337,0,0,0,938.2,397.943Z" transform="translate(-640.026 -286.873)" fill="#464a5f"/>
  <path id="Tracé_186" data-name="Tracé 186" d="M931.181,402.827l-.835-1.209a.337.337,0,0,0-.455-.084l-1.256.845a.337.337,0,0,0-.091.458l.774,1.2a.337.337,0,0,0,.454.1l1.327-.832a.337.337,0,0,0,.081-.471Z" transform="translate(-635.38 -290.117)" fill="#464a5f"/>
  <path id="Tracé_187" data-name="Tracé 187" d="M924.033,407.757l-.848-1.212a.337.337,0,0,0-.458-.084l-1.252.848a.337.337,0,0,0-.094.455l.778,1.2a.337.337,0,0,0,.455.1l1.327-.835a.337.337,0,0,0,.094-.468Z" transform="translate(-630.629 -293.384)" fill="#464a5f"/>
  <path id="Tracé_188" data-name="Tracé 188" d="M928.508,383.943l-.848-1.215a.337.337,0,0,0-.455-.084l-1.256.845a.337.337,0,0,0-.091.455l.778,1.2a.337.337,0,0,0,.451.1l1.327-.832A.337.337,0,0,0,928.508,383.943Z" transform="translate(-633.599 -277.587)" fill="#464a5f"/>
  <path id="Tracé_189" data-name="Tracé 189" d="M921.463,388.83l-.848-1.212a.337.337,0,0,0-.455-.084l-1.256.848a.337.337,0,0,0-.094.455l.778,1.2a.337.337,0,0,0,.455.1l1.327-.835a.337.337,0,0,0,.094-.468Z" transform="translate(-628.925 -280.831)" fill="#464a5f"/>
  <path id="Tracé_190" data-name="Tracé 190" d="M914.343,393.764l-.848-1.209a.337.337,0,0,0-.458-.084l-1.252.845a.337.337,0,0,0-.094.455l.778,1.2a.337.337,0,0,0,.455.1l1.323-.835a.337.337,0,0,0,.1-.471Z" transform="translate(-624.202 -284.104)" fill="#464a5f"/>
  <path id="Tracé_191" data-name="Tracé 191" d="M916.908,412.7l-.849-1.209a.337.337,0,0,0-.454-.084l-1.256.838a.336.336,0,0,0-.091.455l.778,1.2a.337.337,0,0,0,.451.1l1.327-.835A.337.337,0,0,0,916.908,412.7Z" transform="translate(-625.904 -296.664)" fill="#464a5f"/>
  <path id="Tracé_192" data-name="Tracé 192" d="M909.783,417.627l-.848-1.209a.337.337,0,0,0-.455-.084l-1.256.862a.337.337,0,0,0-.094.454l.778,1.2a.337.337,0,0,0,.455.1l1.327-.832a.337.337,0,0,0,.094-.488Z" transform="translate(-621.177 -299.934)" fill="#464a5f"/>
  <path id="Tracé_193" data-name="Tracé 193" d="M902.657,422.569l-1.054-1.5a.152.152,0,0,0-.212-.04l-1.529,1.04a.152.152,0,0,0-.044.212l.966,1.485a.152.152,0,0,0,.212.047l1.63-1.01a.158.158,0,0,0,.03-.232Z" transform="translate(-616.344 -303.065)" fill="#464a5f"/>
  <path id="Tracé_194" data-name="Tracé 194" d="M896.328,426.909l-1.054-1.5a.158.158,0,0,0-.216-.037l-1.542,1.037a.162.162,0,0,0-.044.215l.97,1.485a.155.155,0,0,0,.212.047l1.626-1.01a.152.152,0,0,0,.047-.232Z" transform="translate(-612.136 -305.943)" fill="#464a5f"/>
  <path id="Tracé_195" data-name="Tracé 195" d="M889.263,431.829l-1.054-1.5a.155.155,0,0,0-.212-.037l-1.542,1.037a.158.158,0,0,0-.044.215l.966,1.485a.158.158,0,0,0,.212.047l1.63-1.01a.148.148,0,0,0,.044-.232Z" transform="translate(-607.451 -309.208)" fill="#464a5f"/>
  <path id="Tracé_196" data-name="Tracé 196" d="M882.453,436.559l-1.044-1.5a.151.151,0,0,0-.212-.04l-1.542,1.04a.155.155,0,0,0-.044.212l.966,1.485a.155.155,0,0,0,.212.047l1.63-1.01a.151.151,0,0,0,.034-.232Z" transform="translate(-602.941 -312.345)" fill="#464a5f"/>
  <path id="Tracé_197" data-name="Tracé 197" d="M926.468,396.057l-.845-1.212a.337.337,0,0,0-.458-.084l-1.256.848a.337.337,0,0,0-.091.455l.778,1.2a.337.337,0,0,0,.455.1l1.323-.832a.337.337,0,0,0,.094-.468Z" transform="translate(-632.246 -285.623)" fill="#464a5f"/>
  <path id="Tracé_198" data-name="Tracé 198" d="M919.348,400.992l-.848-1.209a.337.337,0,0,0-.455-.088l-1.256.848a.337.337,0,0,0-.091.455l.778,1.2a.337.337,0,0,0,.451.1l1.327-.835a.337.337,0,0,0,.094-.468Z" transform="translate(-627.523 -288.898)" fill="#464a5f"/>
  <path id="Tracé_199" data-name="Tracé 199" d="M912.256,405.93l-.859-1.205a.337.337,0,0,0-.458-.084l-1.226.842a.337.337,0,0,0-.094.455l.778,1.2a.337.337,0,0,0,.455.1l1.326-.832a.337.337,0,0,0,.078-.471Z" transform="translate(-622.829 -292.177)" fill="#464a5f"/>
  <path id="Tracé_200" data-name="Tracé 200" d="M905.1,410.857l-.848-1.209a.337.337,0,0,0-.454-.084l-1.256.845a.337.337,0,0,0-.091.455l.778,1.2a.337.337,0,0,0,.451.1l1.327-.832a.337.337,0,0,0,.094-.471Z" transform="translate(-618.071 -295.443)" fill="#464a5f"/>
  <path id="Tracé_201" data-name="Tracé 201" d="M897.947,415.8l-1.054-1.5a.155.155,0,0,0-.216-.04l-1.542,1.04a.155.155,0,0,0-.044.212l.966,1.488a.155.155,0,0,0,.216.044l1.626-1.01a.155.155,0,0,0,.047-.232Z" transform="translate(-613.209 -298.574)" fill="#464a5f"/>
  <path id="Tracé_202" data-name="Tracé 202" d="M891.663,420.169l-1.054-1.5a.152.152,0,0,0-.212-.04l-1.532,1.037a.158.158,0,0,0-.044.215l.966,1.485a.158.158,0,0,0,.212.047l1.63-1.01a.155.155,0,0,0,.034-.232Z" transform="translate(-609.05 -301.473)" fill="#464a5f"/>
  <path id="Tracé_203" data-name="Tracé 203" d="M884.583,425.059l-1.054-1.5a.158.158,0,0,0-.216-.037l-1.539,1.037a.158.158,0,0,0-.044.215l.966,1.485a.155.155,0,0,0,.212.047l1.63-1.01a.155.155,0,0,0,.044-.232Z" transform="translate(-604.347 -304.716)" fill="#464a5f"/>
  <path id="Tracé_204" data-name="Tracé 204" d="M877.741,429.789l-1.054-1.5a.155.155,0,0,0-.216-.04l-1.539,1.04a.152.152,0,0,0-.044.212l.966,1.488a.152.152,0,0,0,.212.044l1.63-1.01a.158.158,0,0,0,.044-.232Z" transform="translate(-599.808 -307.853)" fill="#464a5f"/>
  <path id="Tracé_205" data-name="Tracé 205" d="M875.586,441.3l-1.054-1.505a.158.158,0,0,0-.215-.037l-1.542,1.037a.158.158,0,0,0-.044.215l.966,1.485a.158.158,0,0,0,.212.047l1.63-1.01a.151.151,0,0,0,.047-.232Z" transform="translate(-598.377 -315.489)" fill="#464a5f"/>
  <path id="Tracé_206" data-name="Tracé 206" d="M868.747,446.029l-1.054-1.5a.155.155,0,0,0-.216-.04l-1.542,1.04a.155.155,0,0,0-.044.212l.966,1.485a.155.155,0,0,0,.215.047l1.626-1.01a.151.151,0,0,0,.047-.232Z" transform="translate(-593.84 -318.626)" fill="#464a5f"/>
  <path id="Tracé_207" data-name="Tracé 207" d="M879.565,417.827l-.993-1.417a.209.209,0,0,0-.286-.051l-1.465.98a.209.209,0,0,0-.057.286l.909,1.4a.209.209,0,0,0,.286.061l1.535-.966a.205.205,0,0,0,.071-.293Z" transform="translate(-601.046 -299.963)" fill="#464a5f"/>
  <path id="Tracé_208" data-name="Tracé 208" d="M872.745,422.557l-.993-1.414a.206.206,0,0,0-.286-.054l-1.454.983a.205.205,0,0,0-.057.283l.909,1.4a.212.212,0,0,0,.286.064l1.539-.966a.212.212,0,0,0,.057-.3Z" transform="translate(-596.529 -303.1)" fill="#464a5f"/>
  <path id="Tracé_209" data-name="Tracé 209" d="M865.871,427.3l-1.01-1.417a.206.206,0,0,0-.283-.051l-1.458.98a.209.209,0,0,0-.057.286l.909,1.4a.209.209,0,0,0,.286.061l1.539-.966a.205.205,0,0,0,.074-.293Z" transform="translate(-591.958 -306.245)" fill="#464a5f"/>
  <path id="Tracé_210" data-name="Tracé 210" d="M859.061,432.039l-1.054-1.505a.158.158,0,0,0-.215-.037l-1.542,1.037a.158.158,0,0,0-.04.216l.966,1.485a.155.155,0,0,0,.212.047l1.63-1.01a.155.155,0,0,0,.044-.232Z" transform="translate(-587.417 -309.346)" fill="#464a5f"/>
  <path id="Tracé_211" data-name="Tracé 211" d="M935.666,386.169l-.9-1.3a.337.337,0,0,0-.458-.081l-3.582,2.495a.337.337,0,0,0-.088.451l.862,1.327a.337.337,0,0,0,.468.091l3.613-2.529A.337.337,0,0,0,935.666,386.169Z" transform="translate(-636.77 -279.008)" fill="#464a5f"/>
  <path id="Tracé_212" data-name="Tracé 212" d="M866.218,434.228l-1.118-1.579a.151.151,0,0,0-.215-.037l-3.845,2.694a.155.155,0,0,0-.04.212l1.054,1.623a.155.155,0,0,0,.219.044l3.909-2.737A.158.158,0,0,0,866.218,434.228Z" transform="translate(-590.595 -310.747)" fill="#464a5f"/>
  <path id="Tracé_213" data-name="Tracé 213" d="M893.513,398.513l-1.01-1.5a.158.158,0,0,0-.215-.044l-8.535,5.757a.152.152,0,0,0-.044.212l1.05,1.616a.155.155,0,0,0,.219.044l8.512-5.872A.155.155,0,0,0,893.513,398.513Z" transform="translate(-605.658 -287.11)" fill="#464a5f"/>
  <path id="Tracé_214" data-name="Tracé 214" d="M876.4,372.6l-4.539-6.6a.842.842,0,0,0-1.165-.222l-12.5,8.394a.845.845,0,0,0-.225,1.175l4.626,6.784a.842.842,0,0,0,1.175.222l12.414-8.589a.838.838,0,0,0,.216-1.168Z" transform="translate(-588.507 -266.346)" opacity="0.1"/>
  <path id="Tracé_215" data-name="Tracé 215" d="M877.048,372.727l-4.539-6.6a.845.845,0,0,0-1.165-.222l-12.484,8.4a.842.842,0,0,0-.229,1.175l4.613,6.777a.842.842,0,0,0,1.175.222l12.42-8.589a.838.838,0,0,0,.209-1.168Z" transform="translate(-588.944 -266.428)" fill="#939498"/>
  <path id="Tracé_216" data-name="Tracé 216" d="M917.394,411.772l-9.629-3.212L876.88,430.014l9.559,3.114a1.751,1.751,0,0,0,1.545-.229l29.5-20.511a.337.337,0,0,0-.088-.616Z" transform="translate(-601.146 -294.813)" fill="#6c63ff"/>
</svg>
