<svg xmlns="http://www.w3.org/2000/svg" width="981" height="700.628" viewBox="0 0 981 700.628">
  <g id="Groupe_131" data-name="Groupe 131" transform="translate(0.001)">
    <rect id="Rectangle_115" data-name="Rectangle 115" width="168.002" height="2.01" transform="translate(692.992 604.159)" fill="#3f3d56"/>
    <rect id="Rectangle_116" data-name="Rectangle 116" width="337.782" height="281.781" transform="translate(138.384 63.099) rotate(26.346)" fill="#cfcce0"/>
    <rect id="Rectangle_117" data-name="Rectangle 117" width="337.782" height="281.781" transform="translate(125.051 20.432) rotate(26.346)" fill="#6c63ff"/>
    <path id="Tracé_315" data-name="Tracé 315" d="M313.642,243.285l-.72-1.253-82.741,47.562V241.258l76.051-41.167-.687-1.271-75.364,40.8V192.544l43.324-40.3-.983-1.059L230.181,190.57V134.988h-1.445v55.643l-46.205-40.682-.955,1.085,47.16,41.523v47.049l-79.545-43.695-.7,1.266,80.241,44.078v48.322l-87.618-40.2-.6,1.315,88.221,40.471v55.5h1.445V291.261Z" transform="translate(-15.611 -14.997)" fill="#cfcce0"/>
    <path id="Tracé_316" data-name="Tracé 316" d="M300.771,434.32h-.014l-.051-.188-.759-2.941c.585-.123,1.171-.267,1.742-.419-8.722-2.623-17.35-1.937-24.453-.3h-.014c-1.807.412-3.5.9-5.087,1.4.918.159,1.835.311,2.768.434l-.439,1.821h-.06l-3.613,13.52,11.136-.043,22.264-.094Z" transform="translate(-72.927 -97.355)" fill="#3f3d56"/>
    <path id="Tracé_317" data-name="Tracé 317" d="M452.39,415.1H112.427V131.5H452.39ZM114.2,413.325H450.612V133.282H114.2Z" transform="translate(-55.333 -64.301)" fill="#3f3d56"/>
    <path id="Tracé_318" data-name="Tracé 318" d="M508.333,138.918c0,.5-.014.99-.058,1.474a20.231,20.231,0,1,1-38.068-10.919,18.6,18.6,0,0,1,1.489-2.392,20.225,20.225,0,0,1,36.565,10.189C508.311,137.812,508.333,138.362,508.333,138.918Z" transform="translate(-94.822 -62.877)" fill="#cfcce0"/>
    <path id="Tracé_319" data-name="Tracé 319" d="M515.585,127.976c0,.5-.015.99-.058,1.474a20.231,20.231,0,1,1-38.068-10.919,18.6,18.6,0,0,1,1.489-2.392,20.225,20.225,0,0,1,36.564,10.188C515.563,126.87,515.585,127.42,515.585,127.976Z" transform="translate(-95.628 -61.661)" fill="#6c63ff"/>
    <path id="Tracé_320" data-name="Tracé 320" d="M516.85,130.234c0,.5-.015.99-.058,1.474L486.5,128.066l30.278.52C516.827,129.128,516.85,129.678,516.85,130.234Z" transform="translate(-96.892 -63.919)" fill="#3f3d56"/>
    <path id="Tracé_321" data-name="Tracé 321" d="M508.743,141.975,480.72,145.35a20.273,20.273,0,0,1-2.139-2.854Z" transform="translate(-96.012 -65.464)" fill="#3f3d56"/>
    <path id="Tracé_322" data-name="Tracé 322" d="M500.7,116.774l-22.95,2.76a18.6,18.6,0,0,1,1.489-2.392Z" transform="translate(-95.92 -62.665)" fill="#3f3d56"/>
    <circle id="Ellipse_48" data-name="Ellipse 48" cx="13.007" cy="13.007" r="13.007" transform="translate(326.518 336.906)" fill="#3f3d56"/>
    <circle id="Ellipse_49" data-name="Ellipse 49" cx="13.007" cy="13.007" r="13.007" transform="translate(214.277 56.53)" fill="#3f3d56"/>
    <circle id="Ellipse_50" data-name="Ellipse 50" cx="13.007" cy="13.007" r="13.007" transform="translate(45.184 144.651)" fill="#ff6584"/>
    <rect id="Rectangle_118" data-name="Rectangle 118" width="40.497" height="40.497" transform="translate(767.637 570.61)" fill="#cfcce0"/>
    <path id="Tracé_323" data-name="Tracé 323" d="M946.014,732.065H903.386V689.438h42.628Zm-40.5-2.131h38.365V691.569H905.518Z" transform="translate(-143.208 -126.287)" fill="#3f3d56"/>
    <path id="Tracé_324" data-name="Tracé 324" d="M758.3,85.885C741.4,57.34,707.98,56.009,707.98,56.009s-32.569-4.165-53.461,39.31c-19.474,40.522-46.35,79.647-4.327,89.133l7.591-23.625,4.7,25.384a164.434,164.434,0,0,0,17.98.307c45-1.453,87.862.425,86.482-15.724C765.11,149.326,774.552,113.352,758.3,85.885Z" transform="translate(-112.606 -55.902)" fill="#2f2e41"/>
    <path id="Tracé_325" data-name="Tracé 325" d="M668.475,388.927l-13.341-12.69L627.8,341.1l-19.833,9.318,32.2,41.441L654.118,410.3l.04.1s22.777,27.332,38.4,15.618S668.475,388.927,668.475,388.927Z" transform="translate(-110.387 -87.587)" fill="#ae6e78"/>
    <path id="Tracé_326" data-name="Tracé 326" d="M802.082,344.268l-13.341-12.69L773.773,347.2l13.951,18.444.04.1s22.777,27.332,38.4,15.618S802.082,344.268,802.082,344.268Z" transform="translate(-128.808 -86.529)" fill="#ae6e78"/>
    <path id="Tracé_327" data-name="Tracé 327" d="M724.681,255.909l23.428,21.476-14.967,8.46-21.476-26.031Z" transform="translate(-79.066 -28.431)" fill="#cfcce0"/>
    <path id="Tracé_328" data-name="Tracé 328" d="M775.969,198.193s9.111-7.809,13.015,17.571-6.508,34.491-6.508,34.491Z" transform="translate(-129.052 -71.584)" fill="#cfcce0"/>
    <circle id="Ellipse_51" data-name="Ellipse 51" cx="34.491" cy="34.491" r="34.491" transform="translate(558.413 29.645)" fill="#ae6e78"/>
    <path id="Tracé_329" data-name="Tracé 329" d="M683.518,150.016s-4.555,22.126-22.777,24.729-46.855,11.714-42.951,29.284,113.233,15.618,113.233,15.618l19.523-29.935S710.2,179.3,714.1,155.873Z" transform="translate(-111.438 -66.358)" fill="#ae6e78"/>
    <path id="Tracé_330" data-name="Tracé 330" d="M732.92,189.153s-25.705,19.2-86.226,17.9c0,0-34.2,5.511-29.139-12.212,0,0-4.049-6.01-7.954,12.863S576.41,291,579.013,293.6l9.761,9.761,21.475,41.649L633.027,332l-7.809-16.92s14.968,12.365,22.126-5.857c0,0,5.857,17.571,18.221,18.221s92.409-22.126,92.409-22.126-4.555-18.221,0-26.031,11.714-23.428,8.46-35.141l-5.857-46.855S736.174,187.2,732.92,189.153Z" transform="translate(-107.152 -70.678)" fill="#cfcce0"/>
    <path id="Tracé_331" data-name="Tracé 331" d="M667.457,340.77l2.278,18.547S648.91,374.935,652.164,430.9L587.087,702.27s12.365,16.269,44.9,14.968,95.663-260.306,95.663-260.306-17.571,253.8,3.9,260.306,52.061,3.254,52.061,3.254l20.174-339.7s-20.174-33.84-31.887-40.347-16.269-22.777-16.269-22.777Z" transform="translate(-108.067 -84.984)" fill="#2f2e41"/>
    <path id="Tracé_332" data-name="Tracé 332" d="M588.578,746.68l-3.254,24.079s-29.935,64.426-2.6,62.474S610.7,791.583,610.7,791.583l5.206-33.84Z" transform="translate(-106.304 -132.647)" fill="#2f2e41"/>
    <path id="Tracé_333" data-name="Tracé 333" d="M779.142,746.68l3.254,24.078s29.935,64.426,2.6,62.474-27.983-41.649-27.983-41.649l-5.206-33.841Z" transform="translate(-126.368 -132.647)" fill="#2f2e41"/>
    <path id="Tracé_334" data-name="Tracé 334" d="M706.986,29.937l-33.021-17.3-45.6,7.076-9.435,41.669,23.485-.9,6.561-15.309V60.23l10.837-.417L666.1,35.44l3.931,25.945,38.524-.787Z" transform="translate(-68.763 -1.404)" fill="#2f2e41"/>
    <path id="Tracé_335" data-name="Tracé 335" d="M962.89,437.4c-19.348.415-34.738,14.436-34.738,14.436s15.978,13.348,35.326,12.933,34.738-14.436,34.738-14.436S982.238,436.988,962.89,437.4Z" transform="translate(-145.96 -98.285)" fill="#6c63ff"/>
    <path id="Tracé_336" data-name="Tracé 336" d="M1071.97,359.448c-17.48,8.3-37.523,2.673-37.523,2.673s8.3-19.1,25.776-27.4,37.523-2.673,37.523-2.673S1089.446,351.144,1071.97,359.448Z" transform="translate(-157.769 -86.374)" fill="#6c63ff"/>
    <path id="Tracé_337" data-name="Tracé 337" d="M1070.143,353.8c-19.272-1.761-36.14,10.442-36.14,10.442s14.377,15.059,33.649,16.82,36.14-10.442,36.14-10.442S1089.414,355.562,1070.143,353.8Z" transform="translate(-157.72 -88.979)" fill="#3f3d56"/>
    <path id="Tracé_338" data-name="Tracé 338" d="M991.756,353.38c1.847,19.264-10.28,36.187-10.28,36.187s-15.122-14.31-16.97-33.574,10.28-36.187,10.28-36.187S989.909,334.116,991.756,353.38Z" transform="translate(-149.977 -85.221)" fill="#3f3d56"/>
    <path id="Tracé_339" data-name="Tracé 339" d="M889.263,487.645c10.108,16.5,6.63,37.03,6.63,37.03s-19.866-6.228-29.974-22.731-6.63-37.03-6.63-37.03S879.156,471.143,889.263,487.645Z" transform="translate(-138.245 -101.343)" fill="#3f3d56"/>
    <path id="Tracé_340" data-name="Tracé 340" d="M922.965,655.981l-1.473-1a46.149,46.149,0,0,0,8.145-25.594c-.041-13.385-6.616-25.765-12.974-37.737-1.18-2.222-2.356-4.438-3.488-6.651a145.187,145.187,0,0,1-11.293-28.349c-9.862-36.649-.152-79.889,25.973-115.666,20.725-28.381,51.62-53.2,94.449-75.873l.832,1.571c-42.585,22.544-73.282,47.191-93.845,75.35-25.811,35.346-35.415,78.021-25.692,114.155a143.457,143.457,0,0,0,11.158,28c1.128,2.205,2.3,4.412,3.476,6.626,6.459,12.163,13.139,24.741,13.181,38.566a47.946,47.946,0,0,1-8.45,26.595Z" transform="translate(-142.621 -90.255)" fill="#3f3d56"/>
    <circle id="Ellipse_52" data-name="Ellipse 52" cx="16.889" cy="16.889" r="16.889" transform="translate(947.221 243.418)" fill="#3f3d56"/>
  </g>
</svg>
