<svg id="Groupe_100" data-name="Groupe 100" xmlns="http://www.w3.org/2000/svg" width="385.018" height="221.224" viewBox="0 0 385.018 221.224">
  <circle id="Ellipse_28" data-name="Ellipse 28" cx="20.023" cy="20.023" r="20.023" transform="translate(63.4 156.324)" fill="#f2f2f2"/>
  <circle id="Ellipse_29" data-name="Ellipse 29" cx="20.023" cy="20.023" r="20.023" transform="translate(66.656 153.394)" fill="#6c63ff"/>
  <rect id="Rectangle_65" data-name="Rectangle 65" width="247.74" height="0.676" transform="translate(102.804 151.261)" fill="#3f3d56"/>
  <path id="Tracé_59" data-name="Tracé 59" d="M279.273,137.831H191.341v-1.812H151.469v1.812h-88.3a5.948,5.948,0,0,0-5.948,5.948V264.185a5.948,5.948,0,0,0,5.948,5.948h216.1a5.948,5.948,0,0,0,5.948-5.948V143.779a5.948,5.948,0,0,0-5.948-5.948Z" transform="translate(-48.164 -131.527)" fill="#3f3d56"/>
  <rect id="Rectangle_66" data-name="Rectangle 66" width="212.046" height="119.616" transform="translate(17.036 16.816)" fill="#6c63ff"/>
  <circle id="Ellipse_30" data-name="Ellipse 30" cx="2.175" cy="2.175" r="2.175" transform="translate(120.703 9.204)" fill="#6c63ff"/>
  <path id="Tracé_60" data-name="Tracé 60" d="M201.811,169.37H50.406V49.754Z" transform="translate(-33.37 -32.938)" opacity="0.1"/>
  <circle id="Ellipse_31" data-name="Ellipse 31" cx="20.383" cy="20.383" r="20.383" transform="translate(29.833 86.716)" fill="#f2f2f2"/>
  <rect id="Rectangle_67" data-name="Rectangle 67" width="19.807" height="4.139" transform="translate(172.355 81.326)" fill="#3f3d56"/>
  <rect id="Rectangle_68" data-name="Rectangle 68" width="67.7" height="1.774" transform="translate(148.408 49.102)" fill="#3f3d56"/>
  <rect id="Rectangle_69" data-name="Rectangle 69" width="67.7" height="1.774" transform="translate(148.408 54.719)" fill="#3f3d56"/>
  <rect id="Rectangle_70" data-name="Rectangle 70" width="67.7" height="1.774" transform="translate(148.408 60.336)" fill="#3f3d56"/>
  <rect id="Rectangle_71" data-name="Rectangle 71" width="67.7" height="1.774" transform="translate(148.408 65.953)" fill="#3f3d56"/>
  <rect id="Rectangle_72" data-name="Rectangle 72" width="67.7" height="1.774" transform="translate(148.408 71.57)" fill="#3f3d56"/>
  <rect id="Rectangle_73" data-name="Rectangle 73" width="8.278" height="8.278" transform="translate(207.83 19.243)" fill="#f2f2f2"/>
  <path id="Tracé_61" data-name="Tracé 61" d="M661.507,195.837H651.455V185.785h10.052Zm-9.615-.437h9.177v-9.178h-9.177Z" transform="translate(-441.555 -164.473)" fill="#3f3d56"/>
  <path id="Tracé_62" data-name="Tracé 62" d="M273.426,516.46H252.731v-1.491a.3.3,0,0,0-.3-.3h-7.1a.3.3,0,0,0-.3.3v1.491H240.61v-1.491a.3.3,0,0,0-.3-.3h-7.095a.3.3,0,0,0-.3.3v1.491h-4.434v-1.491a.3.3,0,0,0-.3-.3h-7.1a.3.3,0,0,0-.3.3v1.491h-4.434v-1.491a.3.3,0,0,0-.3-.3h-7.1a.3.3,0,0,0-.3.3v1.491h-4.434v-1.491a.3.3,0,0,0-.3-.3h-7.1a.3.3,0,0,0-.3.3v1.491h-4.434v-1.491a.3.3,0,0,0-.3-.3h-7.1a.3.3,0,0,0-.3.3v1.491h-4.435v-1.491a.3.3,0,0,0-.3-.3H124.131a.3.3,0,0,0-.3.3v1.491H119.4v-1.491a.3.3,0,0,0-.3-.3h-7.1a.3.3,0,0,0-.3.3v1.491h-4.434v-1.491a.3.3,0,0,0-.3-.3h-7.1a.3.3,0,0,0-.3.3v1.491H95.158v-1.491a.3.3,0,0,0-.3-.3h-7.1a.3.3,0,0,0-.3.3v1.491H83.037v-1.491a.3.3,0,0,0-.3-.3h-7.1a.3.3,0,0,0-.3.3v1.491H70.916v-1.491a.3.3,0,0,0-.3-.3h-7.1a.3.3,0,0,0-.3.3v1.491H58.8v-1.491a.3.3,0,0,0-.3-.3H51.4a.3.3,0,0,0-.3.3v1.491H37.51a7.1,7.1,0,0,0-7.1,7.1v3.208a7.1,7.1,0,0,0,7.1,7.1H273.426a7.1,7.1,0,0,0,7.1-7.1v-3.208a7.1,7.1,0,0,0-7.1-7.1Z" transform="translate(-30.415 -382.203)" fill="#3f3d56"/>
  <path id="Tracé_63" data-name="Tracé 63" d="M143.273,376.645a25.687,25.687,0,1,1,25.687-25.687,25.687,25.687,0,0,1-25.687,25.687Zm0-50.7a25.011,25.011,0,1,0,25.011,25.011A25.011,25.011,0,0,0,143.273,325.948Z" transform="translate(-88.124 -256.816)" fill="#3f3d56"/>
  <rect id="Rectangle_74" data-name="Rectangle 74" width="86.185" height="0.676" transform="translate(198.115 10.999)" fill="#3f3d56"/>
  <rect id="Rectangle_75" data-name="Rectangle 75" width="247.74" height="0.676" transform="translate(137.278 189.453)" fill="#3f3d56"/>
  <rect id="Rectangle_76" data-name="Rectangle 76" width="86.185" height="0.676" transform="translate(65.12 220.547)" fill="#3f3d56"/>
  <rect id="Rectangle_77" data-name="Rectangle 77" width="9" height="10" transform="translate(159.247 186)" fill="#6c63ff"/>
  <path id="Tracé_64" data-name="Tracé 64" d="M523.906,662.219H512.415V650.728h11.491Zm-10.992-.5h10.492V651.228H512.914Z" transform="translate(-349.508 -472.274)" fill="#3f3d56"/>
  <rect id="Rectangle_78" data-name="Rectangle 78" width="9" height="9" transform="translate(269.247 8)" fill="#6c63ff"/>
  <path id="Tracé_65" data-name="Tracé 65" d="M848.906,134.219H837.415V122.728h11.491Zm-10.992-.5h10.492V123.228H837.914Z" transform="translate(-564.664 -122.728)" fill="#3f3d56"/>
  <rect id="Rectangle_79" data-name="Rectangle 79" width="10" height="10" transform="translate(364.247 186)" fill="#6c63ff"/>
  <path id="Tracé_66" data-name="Tracé 66" d="M1130.9,662.219H1119.41V650.728H1130.9Zm-10.992-.5H1130.4V651.228H1119.91Z" transform="translate(-751.35 -472.274)" fill="#3f3d56"/>
  <path id="Tracé_67" data-name="Tracé 67" d="M944.684,286.581h-.8V264.558a12.746,12.746,0,0,0-12.747-12.747H884.473a12.747,12.747,0,0,0-12.747,12.747V385.38a12.747,12.747,0,0,0,12.747,12.747h46.659a12.747,12.747,0,0,0,12.746-12.747V302.258h.8Z" transform="translate(-587.378 -208.183)" fill="#3f3d56"/>
  <path id="Tracé_68" data-name="Tracé 68" d="M948.057,273.1V393.745a9.52,9.52,0,0,1-9.519,9.521H891.654a9.519,9.519,0,0,1-9.518-9.519V273.1a9.518,9.518,0,0,1,9.516-9.518h5.689a4.522,4.522,0,0,0,4.188,6.229H928.26a4.522,4.522,0,0,0,4.188-6.229h6.09a9.519,9.519,0,0,1,9.519,9.518Z" transform="translate(-594.27 -215.976)" fill="#6c63ff"/>
  <rect id="Rectangle_80" data-name="Rectangle 80" width="13.967" height="4.139" transform="translate(313.843 127.155)" fill="#3f3d56"/>
  <rect id="Rectangle_81" data-name="Rectangle 81" width="47.736" height="1.774" transform="translate(296.957 94.931)" fill="#3f3d56"/>
  <rect id="Rectangle_82" data-name="Rectangle 82" width="47.736" height="1.774" transform="translate(296.957 100.548)" fill="#3f3d56"/>
  <rect id="Rectangle_83" data-name="Rectangle 83" width="47.736" height="1.774" transform="translate(296.957 106.165)" fill="#3f3d56"/>
  <rect id="Rectangle_84" data-name="Rectangle 84" width="47.736" height="1.774" transform="translate(296.957 111.782)" fill="#3f3d56"/>
  <rect id="Rectangle_85" data-name="Rectangle 85" width="47.736" height="1.774" transform="translate(296.957 117.399)" fill="#3f3d56"/>
  <rect id="Rectangle_86" data-name="Rectangle 86" width="8.278" height="8.278" transform="translate(314.216 71.375)" fill="#f2f2f2"/>
  <path id="Tracé_69" data-name="Tracé 69" d="M969.474,340.032v10.052h10.052V340.032Zm9.616,9.616h-9.18v-9.18h9.18Z" transform="translate(-652.089 -266.587)" fill="#3f3d56"/>
  <path id="Tracé_70" data-name="Tracé 70" d="M948.057,508.571v12.884a9.52,9.52,0,0,1-9.519,9.521H891.654a9.519,9.519,0,0,1-9.518-9.519V456.492l39.5,31.206.676.534,7.348,5.8.686.544Z" transform="translate(-594.27 -343.686)" opacity="0.1"/>
  <circle id="Ellipse_32" data-name="Ellipse 32" cx="14.826" cy="14.826" r="14.826" transform="translate(301.943 153.727)" fill="#f2f2f2"/>
  <path id="Tracé_71" data-name="Tracé 71" d="M292.99,662.081a29.4,29.4,0,1,1,29.4-29.4A29.4,29.4,0,0,1,292.99,662.081Zm0-58.133a28.728,28.728,0,1,0,28.728,28.728,28.728,28.728,0,0,0-28.728-28.728Z" transform="translate(-184.778 -440.857)" fill="#3f3d56"/>
  <path id="Tracé_72" data-name="Tracé 72" d="M944.175,582.45a18.589,18.589,0,1,1,18.589-18.589A18.589,18.589,0,0,1,944.175,582.45Zm0-36.5a17.913,17.913,0,1,0,17.913,17.913A17.913,17.913,0,0,0,944.175,545.948Z" transform="translate(-623.035 -402.46)" fill="#3f3d56"/>
</svg>
