<svg id="visibitity" xmlns="http://www.w3.org/2000/svg" width="1061" height="530.892" viewBox="0 0 1061 530.892">
  <path id="Tracé_327" data-name="Tracé 327" d="M898.293,284.281H638.123v-5.362H520.152v5.362H258.91a17.6,17.6,0,0,0-17.6,17.6V658.131a17.6,17.6,0,0,0,17.6,17.6H898.293a17.6,17.6,0,0,0,17.6-17.6V301.879a17.6,17.6,0,0,0-17.6-17.6Z" transform="translate(-69.5 -184.554)" fill="#3f3d56"/>
  <rect id="Rectangle_127" data-name="Rectangle 127" width="627.391" height="353.913" transform="translate(195.406 130.828)" opacity="0.1"/>
  <circle id="Ellipse_49" data-name="Ellipse 49" cx="6.435" cy="6.435" r="6.435" transform="translate(502.13 108.307)" fill="#6c63ff"/>
  <path id="Tracé_328" data-name="Tracé 328" d="M933.507,662.86H872.278v-4.412a.875.875,0,0,0-.875-.875H850.41a.875.875,0,0,0-.875.875v4.412H836.415v-4.412a.875.875,0,0,0-.875-.875H814.547a.875.875,0,0,0-.875.875v4.412h-13.12v-4.412a.875.875,0,0,0-.875-.875H778.684a.875.875,0,0,0-.875.875v4.412h-13.12v-4.412a.875.875,0,0,0-.875-.875H742.822a.875.875,0,0,0-.875.875v4.411H728.826v-4.412a.875.875,0,0,0-.875-.875H706.959a.875.875,0,0,0-.875.875v4.412H692.963v-4.412a.875.875,0,0,0-.875-.875H671.1a.875.875,0,0,0-.875.875v4.412H657.1v-4.412a.875.875,0,0,0-.875-.875H491.781a.875.875,0,0,0-.875.875v4.412h-13.12v-4.412a.875.875,0,0,0-.875-.875H455.918a.875.875,0,0,0-.875.875v4.412h-13.12v-4.412a.875.875,0,0,0-.875-.875H420.055a.875.875,0,0,0-.875.875v4.412H406.06v-4.412a.875.875,0,0,0-.875-.875H384.193a.875.875,0,0,0-.875.875v4.412H370.2v-4.412a.875.875,0,0,0-.875-.875H348.33a.875.875,0,0,0-.875.875v4.412h-13.12v-4.412a.875.875,0,0,0-.875-.875H312.467a.875.875,0,0,0-.875.875v4.412h-13.12v-4.412a.875.875,0,0,0-.875-.875H276.6a.875.875,0,0,0-.875.875v4.412H235.493A20.993,20.993,0,0,0,214.5,683.853v9.493a20.993,20.993,0,0,0,20.993,20.993H933.507A20.993,20.993,0,0,0,954.5,693.346v-9.492a20.993,20.993,0,0,0-20.994-20.994Z" transform="translate(-69.5 -184.554)" fill="#3f3d56"/>
  <rect id="Rectangle_128" data-name="Rectangle 128" width="254" height="267" transform="translate(382.209 171)" fill="#6c63ff"/>
  <path id="Tracé_329" data-name="Tracé 329" d="M586.05,344.47s-21.658-7.735-35.581,23.205-35.581,64.975-35.581,64.975l12.376,3.094s3.094-21.658,10.829-24.752L535,438.838s92.821,32.487,134.591-3.094l-1.547-10.829s6.188,1.547,6.188,10.829l4.641-4.641s-4.641-9.282-18.564-21.658c-9.139-8.123-12.279-23.577-13.358-33.24a40.223,40.223,0,0,0-9.261-21.9C628.436,343.577,611.576,332.179,586.05,344.47Z" transform="translate(-69.5 -184.554)" fill="#2f2e41"/>
  <path id="Tracé_330" data-name="Tracé 330" d="M466.371,373.661l-9-94s-18-51,9-47,11,43,11,43l15,98Z" transform="translate(-69.5 -184.554)" fill="#ae6e78"/>
  <circle id="Ellipse_50" data-name="Ellipse 50" cx="36" cy="36" r="36" transform="translate(491.871 187.107)" fill="#ae6e78"/>
  <path id="Tracé_331" data-name="Tracé 331" d="M571.371,423.661s-2,41-12,44-38,36-25,46,88,3,88,3l-7-52s-16-11-3-30Z" transform="translate(-69.5 -184.554)" fill="#ae6e78"/>
  <path id="Tracé_332" data-name="Tracé 332" d="M646.439,624.554h-141.4c.51-9.05,1.79-21.83,3.43-35.88.5-4.26,1.03-8.65,1.58-13.08,4.85-39.05,11.32-81.93,11.32-81.93l1.7-3.93,17.3-40.07.18.07,22.82,8.93.81,3.84,6.19,29.16,40.05-32.33,36.95-5.78,2.5-.39,4.5,42.5s-.2,9.5-.41,23.03c-.24,15.55-.5,36.43-.48,54.32.01,8.55.08,16.42.25,22.7.14,5.29.35,9.46.64,11.95C655.039,613.334,651.479,619.224,646.439,624.554Z" transform="translate(-69.5 -184.554)" fill="#3f3d56"/>
  <path id="Tracé_333" data-name="Tracé 333" d="M471.871,270.107l-1-6-28-34-16-57-39,15,28,69,40,51Z" fill="#3f3d56"/>
  <path id="Tracé_334" data-name="Tracé 334" d="M550.077,411.966s12.376-17.017,23.205-20.111,12.376-18.564,12.376-18.564,27.846,30.94,44.864,32.487,1.547-37.129,1.547-37.129l-30.94-7.735-29.393,3.094L548.53,379.479Z" transform="translate(-69.5 -184.554)" fill="#2f2e41"/>
  <path id="Tracé_335" data-name="Tracé 335" d="M649.709,590.554l-95.672,3.795s-52.72,12.068-45.667-14.3,43.974-6.026,43.974-6.026l99.071-3.729Z" transform="translate(-69.5 -184.554)" fill="#ae6e78"/>
  <path id="Tracé_336" data-name="Tracé 336" d="M638.871,460.161l9-7s15-8,18,20,25,121,3,122-78,2-78,2l6-31,46-3Z" transform="translate(-69.5 -184.554)" fill="#3f3d56"/>
  <path id="Tracé_337" data-name="Tracé 337" d="M572.371,318.607l-3,57-44,9,40-16Z" opacity="0.15"/>
  <rect id="Rectangle_129" data-name="Rectangle 129" width="244" height="64" transform="translate(286.9)" fill="#6c63ff"/>
  <rect id="Rectangle_130" data-name="Rectangle 130" width="1061" height="2" transform="translate(0 528.892)" fill="#3f3d56"/>
  <path id="Tracé_338" data-name="Tracé 338" d="M1027.46,643.582c14.376,15.426,15.119,38.1,15.119,38.1s-22.565-2.338-36.941-17.764-15.119-38.1-15.119-38.1S1013.08,628.156,1027.46,643.582Z" transform="translate(-69.5 -184.554)" fill="#6c63ff"/>
  <path id="Tracé_339" data-name="Tracé 339" d="M1072.71,667.661c-15.426,14.376-38.1,15.119-38.1,15.119s2.338-22.565,17.764-36.941,38.1-15.119,38.1-15.119S1088.14,653.285,1072.71,667.661Z" transform="translate(-69.5 -184.554)" fill="#6c63ff"/>
  <path id="Tracé_340" data-name="Tracé 340" d="M1068.88,713.446h-56.74a5.8,5.8,0,0,1-5.219-3.265l-12.353-25.393a5.8,5.8,0,0,1,5.219-8.342h81.446a5.8,5.8,0,0,1,5.219,8.342L1074.1,710.181A5.8,5.8,0,0,1,1068.88,713.446Z" transform="translate(-69.5 -184.554)" fill="#3f3d56"/>
  <path id="Tracé_341" data-name="Tracé 341" d="M130.457,643.582c14.376,15.426,15.119,38.1,15.119,38.1s-22.565-2.338-36.941-17.764-15.119-38.1-15.119-38.1S116.081,628.156,130.457,643.582Z" transform="translate(-69.5 -184.554)" fill="#6c63ff"/>
  <path id="Tracé_342" data-name="Tracé 342" d="M162.88,713.446H106.141a5.8,5.8,0,0,1-5.219-3.265L88.569,684.788a5.8,5.8,0,0,1,5.219-8.342h81.446a5.8,5.8,0,0,1,5.219,8.342L168.1,710.181A5.8,5.8,0,0,1,162.88,713.446Z" transform="translate(-69.5 -184.554)" fill="#3f3d56"/>
  <rect id="Rectangle_131" data-name="Rectangle 131" width="182" height="12.554" transform="translate(317.9 25.723)" fill="#fff"/>
</svg>
